<svg version="1.1" preserveAspectRatio="none" xmlns="http://www.w3.org/2000/svg" width="500" height="500" viewBox="0 0 500 500"><rect width="100%" height="100%" fill="#FFFFFF" fill-opacity="1"/><svg viewBox="140.8421 162.0333 298.2365 186" width="333" height="207.6808170696746" x="83.5px" y="146.1596px" xmlns="http://www.w3.org/2000/svg" xmlns:xlink="http://www.w3.org/1999/xlink" preserveAspectRatio="none"><defs></defs><style>.companyName {fill:#0C0C0C;fill-opacity:1;}.icon3 {fill:#0C0C0C;fill-opacity:1;}.icon3-str {stroke:#0C0C0C;stroke-opacity:1;}.text {fill:#0C0C0C;fill-opacity:1;}</style><g opacity="1" transform="rotate(0 175.5197 172.0333)">
<svg width="228.3156" height="120" x="175.5197" y="172.0333" version="1.1" preserveAspectRatio="none" viewBox="3.92 -22.84 98.47999999999999 51.76">
  <g transform="matrix(1 0 0 1 0 0)" class="companyName"><path id="id-D6z1nYkh8" d="M16.76-2.80L17.24-2.80Q18.56-2.12 18.56-0.84L18.56-0.84Q18.56 0 18.14 0.36Q17.72 0.72 16.94 0.86Q16.16 1 15 1.02Q13.84 1.04 12.40 1.12L12.40 1.12Q11.92 0.96 8.88 0.80L8.88 0.80Q8.44 0.84 8.04 0.86Q7.64 0.88 7.28 0.88L7.28 0.88Q5.12 0.88 4.32 0.24L4.32 0.24Q4.12-1.36 4.02-2.72Q3.92-4.08 3.92-5.20L3.92-5.20Q3.92-6.96 4.06-8.26Q4.20-9.56 4.20-10.60L4.20-10.60Q4.20-11.88 4.08-12.60L4.08-12.60L4.32-16.80Q4.48-18.32 4.70-19.40Q4.92-20.48 5.24-21.04L5.24-21.04Q5.48-21.36 7.64-21.84L7.64-21.84L10.20-22.40Q10.44-22.44 11.20-22.52Q11.96-22.60 12.78-22.68Q13.60-22.76 14.24-22.80Q14.88-22.84 14.84-22.84L14.84-22.84L15-22.84Q15.44-22.84 15.90-22.24Q16.36-21.64 16.36-20.84L16.36-20.84Q16.36-20.44 16.34-20.12Q16.32-19.80 16.08-19.58Q15.84-19.36 15.28-19.24Q14.72-19.12 13.64-19.08L13.64-19.08Q11.88-19 11.24-18.72L11.24-18.72L11.04-18.72Q10-18.72 8.44-18.24L8.44-18.24Q8.28-18.04 8.20-17.54Q8.12-17.04 8.08-16.50Q8.04-15.96 8.02-15.58Q8-15.20 8-15.32L8-15.32Q7.96-15.12 7.94-14.92Q7.92-14.72 7.92-14.40L7.92-14.40Q7.92-14.12 7.94-13.78Q7.96-13.44 8-13.04L8-13.04Q9.24-13.16 10.02-13.30Q10.80-13.44 11.24-13.44L11.24-13.44Q12.08-13.44 12.88-13.48Q13.68-13.52 14.30-13.38Q14.92-13.24 15.28-12.82Q15.64-12.40 15.64-11.48L15.64-11.48Q15.64-10.44 14.98-10.12Q14.32-9.80 12.68-9.76L12.68-9.76Q10.76-9.68 10.36-9.60L10.36-9.60Q10.12-9.60 9.86-9.62Q9.60-9.64 9.28-9.64L9.28-9.64Q9.08-9.64 8.82-9.66Q8.56-9.68 8.32-9.66Q8.08-9.64 7.90-9.50Q7.72-9.36 7.72-9L7.72-9Q7.72-8.76 7.74-8.38Q7.76-8 7.76-7.68L7.76-7.68Q7.76-7.20 7.74-6.72Q7.72-6.24 7.70-5.70Q7.68-5.16 7.66-4.48Q7.64-3.80 7.64-2.88L7.64-2.88Q7.88-2.84 8.58-2.80Q9.28-2.76 10.06-2.72Q10.84-2.68 11.56-2.62Q12.28-2.56 12.52-2.52L12.52-2.52Q12.56-2.52 13.08-2.56Q13.60-2.60 14.60-2.68L14.60-2.68Q15.96-2.80 16.76-2.80L16.76-2.80Z M38.68-1.44L38.68-1.44Q38.68-0.72 38.04-0.10Q37.40 0.52 36.76 0.52L36.76 0.52Q36.44 0.52 36.24 0.32L36.24 0.32Q36.20 0.32 35.88-0.08Q35.56-0.48 35.12-1.08Q34.68-1.68 34.16-2.36Q33.64-3.04 33.20-3.64Q32.76-4.24 32.50-4.62Q32.24-5 32.28-4.96L32.28-4.96Q32.20-5.20 31.88-5.72Q31.56-6.24 31.18-6.82Q30.80-7.40 30.48-7.90Q30.16-8.40 30.12-8.52L30.12-8.52Q30.04-8.52 29.68-8.46Q29.32-8.40 28.88-8.34Q28.44-8.28 27.98-8.22Q27.52-8.16 27.28-8.16L27.28-8.16L27.08-8.16Q26.96-6.92 26.88-6.12Q26.80-5.32 26.80-4.92L26.80-4.92L26.80-3.68Q26.80-1.52 26.44 1L26.44 1Q25.96 1.72 25.04 1.72L25.04 1.72Q24.24 1.72 23.66 1.30Q23.08 0.88 23.08-0.16L23.08-0.16Q23.08-0.48 23.10-0.94Q23.12-1.40 23.14-1.88Q23.16-2.36 23.18-2.74Q23.20-3.12 23.20-3.24L23.20-3.24L23.20-3.44L23.48-9.48Q23.52-10 23.50-10.76Q23.48-11.52 23.56-12.52L23.56-12.52L23.88-14.92Q24.12-16.16 24.12-17.04L24.12-17.04Q24.12-17.32 24.10-17.58Q24.08-17.84 24.04-18.12L24.04-18.12Q24.04-18.12 24.16-19.52L24.16-19.52Q24.20-20.48 24.52-21.08Q24.84-21.68 26.04-21.68L26.04-21.68Q26.88-21.68 27.72-21.40L27.72-21.40Q28.52-21.48 29.14-21.48Q29.76-21.48 30.20-21.48L30.20-21.48Q30.60-21.48 30.92-21.46Q31.24-21.44 31.56-21.38Q31.88-21.32 32.28-21.22Q32.68-21.12 33.24-20.96L33.24-20.96L35-19.76Q36.48-18.60 36.98-17.44Q37.48-16.28 37.48-15L37.48-15Q37.48-14.12 37.42-13.50Q37.36-12.88 37-12.28Q36.64-11.68 35.88-11.04Q35.12-10.40 33.72-9.44L33.72-9.44Q34.64-8.28 35.80-6L35.80-6Q36.52-5.44 38.68-1.44ZM33.76-14.20L33.76-14.20Q33.80-14.36 33.80-14.64L33.80-14.64Q33.80-15.04 33.72-15.46Q33.64-15.88 33.36-16.30Q33.08-16.72 32.54-17.14Q32-17.56 31.04-17.96L31.04-17.96Q30.20-18.28 29.64-18.28L29.64-18.28Q29.48-18.24 29.20-18.20L29.20-18.20Q28.96-18.12 28.60-18.06Q28.24-18 27.80-17.92L27.80-17.92Q27.84-17.68 27.84-17.46Q27.84-17.24 27.78-16.64Q27.72-16.04 27.60-14.92Q27.48-13.80 27.32-11.80L27.32-11.80Q27.48-11.76 27.64-11.76Q27.80-11.76 27.96-11.76L27.96-11.76Q28.72-11.76 29.66-11.98Q30.60-12.20 31.44-12.54Q32.28-12.88 32.92-13.32Q33.56-13.76 33.76-14.20Z M59.20-1.44L59.20-1.44Q59.20-0.72 58.56-0.10Q57.92 0.52 57.28 0.52L57.28 0.52Q56.96 0.52 56.76 0.32L56.76 0.32Q56.72 0.32 56.40-0.08Q56.08-0.48 55.64-1.08Q55.20-1.68 54.68-2.36Q54.16-3.04 53.72-3.64Q53.28-4.24 53.02-4.62Q52.76-5 52.80-4.96L52.80-4.96Q52.72-5.20 52.40-5.72Q52.08-6.24 51.70-6.82Q51.32-7.40 51.00-7.90Q50.68-8.40 50.64-8.52L50.64-8.52Q50.56-8.52 50.20-8.46Q49.84-8.40 49.40-8.34Q48.96-8.28 48.50-8.22Q48.04-8.16 47.80-8.16L47.80-8.16L47.60-8.16Q47.48-6.92 47.40-6.12Q47.32-5.32 47.32-4.92L47.32-4.92L47.32-3.68Q47.32-1.52 46.96 1L46.96 1Q46.48 1.72 45.56 1.72L45.56 1.72Q44.76 1.72 44.18 1.30Q43.60 0.88 43.60-0.16L43.60-0.16Q43.60-0.48 43.62-0.94Q43.64-1.40 43.66-1.88Q43.68-2.36 43.70-2.74Q43.72-3.12 43.72-3.24L43.72-3.24L43.72-3.44L44.00-9.48Q44.04-10 44.02-10.76Q44.00-11.52 44.08-12.52L44.08-12.52L44.40-14.92Q44.64-16.16 44.64-17.04L44.64-17.04Q44.64-17.32 44.62-17.58Q44.60-17.84 44.56-18.12L44.56-18.12Q44.56-18.12 44.68-19.52L44.68-19.52Q44.72-20.48 45.04-21.08Q45.36-21.68 46.56-21.68L46.56-21.68Q47.40-21.68 48.24-21.40L48.24-21.40Q49.04-21.48 49.66-21.48Q50.28-21.48 50.72-21.48L50.72-21.48Q51.12-21.48 51.44-21.46Q51.76-21.44 52.08-21.38Q52.40-21.32 52.80-21.22Q53.20-21.12 53.76-20.96L53.76-20.96L55.52-19.76Q57-18.60 57.50-17.44Q58-16.28 58-15L58-15Q58-14.12 57.94-13.50Q57.88-12.88 57.52-12.28Q57.16-11.68 56.40-11.04Q55.64-10.40 54.24-9.44L54.24-9.44Q55.16-8.28 56.32-6L56.32-6Q57.04-5.44 59.20-1.44ZM54.28-14.20L54.28-14.20Q54.32-14.36 54.32-14.64L54.32-14.64Q54.32-15.04 54.24-15.46Q54.16-15.88 53.88-16.30Q53.60-16.72 53.06-17.14Q52.52-17.56 51.56-17.96L51.56-17.96Q50.72-18.28 50.16-18.28L50.16-18.28Q50.00-18.24 49.72-18.20L49.72-18.20Q49.48-18.12 49.12-18.06Q48.76-18 48.32-17.92L48.32-17.92Q48.36-17.68 48.36-17.46Q48.36-17.24 48.30-16.64Q48.24-16.04 48.12-14.92Q48.00-13.80 47.84-11.80L47.84-11.80Q48.00-11.76 48.16-11.76Q48.32-11.76 48.48-11.76L48.48-11.76Q49.24-11.76 50.18-11.98Q51.12-12.20 51.96-12.54Q52.80-12.88 53.44-13.32Q54.08-13.76 54.28-14.20Z M81.12-10.64L81.04-7.84Q80.52-5.76 78.08-3.04L78.08-3.04Q77.76-2.92 77.26-2.56Q76.76-2.20 75.98-1.82Q75.20-1.44 74.08-1.16Q72.96-0.88 71.44-0.88L71.44-0.88Q68.40-0.88 66.36-2.50Q64.32-4.12 63.20-7.60L63.20-7.60Q63.16-7.88 63.16-8.16Q63.16-8.44 63.16-8.76L63.16-8.76Q63.16-11.24 63.68-13.14Q64.20-15.04 65.08-16.44Q65.96-17.84 67.10-18.80Q68.24-19.76 69.48-20.36L69.48-20.36Q71.52-20.92 73.48-20.92L73.48-20.92Q74.88-20.92 76.24-20.20Q77.60-19.48 78.66-18.16Q79.72-16.84 80.38-14.94Q81.04-13.04 81.12-10.64L81.12-10.64ZM77.36-7.96L77.36-7.96Q77.64-9.60 77.64-10.52L77.64-10.52Q77.64-12.04 77.20-13.32Q76.76-14.60 76.16-15.54Q75.56-16.48 74.90-17.02Q74.24-17.56 73.80-17.56L73.80-17.56Q71.68-17.56 70.34-16.62Q69.00-15.68 68.24-14.36Q67.48-13.04 67.20-11.60Q66.92-10.16 66.92-9.16L66.92-9.16Q66.92-8.24 67.22-7.38Q67.52-6.52 68.10-5.86Q68.68-5.20 69.48-4.80Q70.28-4.40 71.32-4.40L71.32-4.40Q73.76-4.40 75.16-5.30Q76.56-6.20 77.36-7.96Z M102.40-1.44L102.40-1.44Q102.40-0.72 101.76-0.10Q101.12 0.52 100.48 0.52L100.48 0.52Q100.16 0.52 99.96 0.32L99.96 0.32Q99.92 0.32 99.60-0.08Q99.28-0.48 98.84-1.08Q98.40-1.68 97.88-2.36Q97.36-3.04 96.92-3.64Q96.48-4.24 96.22-4.62Q95.96-5 96-4.96L96-4.96Q95.92-5.20 95.60-5.72Q95.28-6.24 94.90-6.82Q94.52-7.40 94.20-7.90Q93.88-8.40 93.84-8.52L93.84-8.52Q93.76-8.52 93.40-8.46Q93.04-8.40 92.60-8.34Q92.16-8.28 91.70-8.22Q91.24-8.16 91-8.16L91-8.16L90.80-8.16Q90.68-6.92 90.60-6.12Q90.52-5.32 90.52-4.92L90.52-4.92L90.52-3.68Q90.52-1.52 90.16 1L90.16 1Q89.68 1.72 88.76 1.72L88.76 1.72Q87.96 1.72 87.38 1.30Q86.80 0.88 86.80-0.16L86.80-0.16Q86.80-0.48 86.82-0.94Q86.84-1.40 86.86-1.88Q86.88-2.36 86.90-2.74Q86.92-3.12 86.92-3.24L86.92-3.24L86.92-3.44L87.20-9.48Q87.24-10 87.22-10.76Q87.20-11.52 87.28-12.52L87.28-12.52L87.60-14.92Q87.84-16.16 87.84-17.04L87.84-17.04Q87.84-17.32 87.82-17.58Q87.80-17.84 87.76-18.12L87.76-18.12Q87.76-18.12 87.88-19.52L87.88-19.52Q87.92-20.48 88.24-21.08Q88.56-21.68 89.76-21.68L89.76-21.68Q90.60-21.68 91.44-21.40L91.44-21.40Q92.24-21.48 92.86-21.48Q93.48-21.48 93.92-21.48L93.92-21.48Q94.32-21.48 94.64-21.46Q94.96-21.44 95.28-21.38Q95.60-21.32 96-21.22Q96.40-21.12 96.96-20.96L96.96-20.96L98.72-19.76Q100.20-18.60 100.70-17.44Q101.20-16.28 101.20-15L101.20-15Q101.20-14.12 101.14-13.50Q101.08-12.88 100.72-12.28Q100.36-11.68 99.60-11.04Q98.84-10.40 97.44-9.44L97.44-9.44Q98.36-8.28 99.52-6L99.52-6Q100.24-5.44 102.40-1.44ZM97.48-14.20L97.48-14.20Q97.52-14.36 97.52-14.64L97.52-14.64Q97.52-15.04 97.44-15.46Q97.36-15.88 97.08-16.30Q96.80-16.72 96.26-17.14Q95.72-17.56 94.76-17.96L94.76-17.96Q93.92-18.28 93.36-18.28L93.36-18.28Q93.20-18.24 92.92-18.20L92.92-18.20Q92.68-18.12 92.32-18.06Q91.96-18 91.52-17.92L91.52-17.92Q91.56-17.68 91.56-17.46Q91.56-17.24 91.50-16.64Q91.44-16.04 91.32-14.92Q91.20-13.80 91.04-11.80L91.04-11.80Q91.20-11.76 91.36-11.76Q91.52-11.76 91.68-11.76L91.68-11.76Q92.44-11.76 93.38-11.98Q94.32-12.20 95.16-12.54Q96-12.88 96.64-13.32Q97.28-13.76 97.48-14.20Z M21.52 22.88L21.52 22.88Q21.44 22.92 17.68 23.04L17.68 23.04Q17.48 24.88 17.22 26.24Q16.96 27.60 16.64 28.52L16.64 28.52Q16.24 28.92 15.36 28.92L15.36 28.92Q13.72 28.92 13.44 28.08L13.44 28.08Q13.44 26.52 14.08 23.20L14.08 23.20Q12.64 23.20 12.08 23.18Q11.52 23.16 11.18 23.16Q10.84 23.16 10.34 23.14Q9.84 23.12 8.52 23.12L8.52 23.12Q8.08 23.12 7.42 22.98Q6.76 22.84 6.10 22.62Q5.44 22.40 4.86 22.16Q4.28 21.92 4.04 21.68L4.04 21.68Q3.92 21.32 3.92 20.84L3.92 20.84Q3.92 19.60 4.68 17.96L4.68 17.96Q5.44 16.96 6.72 13.64L6.72 13.64L10.04 8.52Q10.44 8.16 11.12 8.16L11.12 8.16Q12.80 8.16 12.80 9.56L12.80 9.56Q12.80 9.60 12.60 10.08Q12.40 10.56 12.02 11.36Q11.64 12.16 11.08 13.18Q10.52 14.20 9.80 15.28L9.80 15.28L7.84 19.84Q7.96 19.96 8.20 19.96L8.20 19.96Q8.52 19.96 8.68 19.86Q8.84 19.76 8.84 19.80L8.84 19.80Q9.04 19.76 9.26 19.74Q9.48 19.72 9.72 19.72L9.72 19.72Q10.16 19.72 10.66 19.78Q11.16 19.84 11.76 19.92L11.76 19.92Q12.88 19.92 14.40 19.80L14.40 19.80L14.64 16.72Q14.60 16.36 14.58 16Q14.56 15.64 14.56 15.28L14.56 15.28Q14.56 14.40 14.70 13.60Q14.84 12.80 14.84 11.88L14.84 11.88Q14.84 11.64 14.80 11.02Q14.76 10.40 14.70 9.72Q14.64 9.04 14.60 8.48Q14.56 7.92 14.56 7.84L14.56 7.84Q14.96 6.84 15.92 6.84L15.92 6.84Q16.08 6.88 16.24 6.88L16.24 6.88Q16.40 6.92 16.64 6.92Q16.88 6.92 17.20 6.96L17.20 6.96Q17.32 7.12 17.50 7.70Q17.68 8.28 17.84 9.02Q18 9.76 18.12 10.54Q18.24 11.32 18.24 11.88L18.24 11.88Q18.24 12.48 18.20 13.28Q18.16 14.08 18.12 15.36L18.12 15.36Q18.16 15.52 18.16 16.12L18.16 16.12Q18.16 16.68 18.12 17.56Q18.08 18.44 18 19.64L18 19.64L18.40 19.64Q18.96 19.64 19.66 19.70Q20.36 19.76 21.28 19.84L21.28 19.84Q22.12 20.08 22.12 21.40L22.12 21.40Q22.12 22.36 21.52 22.88Z M42.60 16.60L42.60 16.60Q42.52 17.48 42.20 18.62Q41.88 19.76 41.46 20.90Q41.04 22.04 40.54 23.04Q40.04 24.04 39.56 24.64L39.56 24.64L37.20 26.28Q35.68 27.12 34.08 27.12L34.08 27.12Q32.44 27.12 31.06 26.26Q29.68 25.40 28.66 23.98Q27.64 22.56 27.06 20.78Q26.48 19 26.48 17.12L26.48 17.12Q26.48 14.96 27.38 13.12Q28.28 11.28 30.44 9.48L30.44 9.48Q31.48 8.60 32.44 8.16Q33.40 7.72 34.22 7.54Q35.04 7.36 35.68 7.34Q36.32 7.32 36.76 7.32L36.76 7.32Q38.28 7.32 39.32 7.80Q40.36 8.28 41.04 9.36Q41.72 10.44 42.08 12.22Q42.44 14 42.60 16.60ZM38.56 18.88L38.56 18.88Q39.08 17.44 39.08 15.76L39.08 15.76Q39.08 14.88 38.92 13.98Q38.76 13.08 38.44 12.36Q38.12 11.64 37.62 11.18Q37.12 10.72 36.48 10.72L36.48 10.72Q35.36 10.72 34.22 11.12Q33.08 11.52 32.18 12.30Q31.28 13.08 30.72 14.26Q30.16 15.44 30.16 17L30.16 17Q30.20 17.48 30.22 18.04Q30.24 18.60 30.40 19.24L30.40 19.24L30.80 20.88Q32.28 23.56 34.16 23.56L34.16 23.56Q35.52 23.56 36.66 22.30Q37.80 21.04 38.56 18.88Z M57.84 8.12L57.84 8.12L57.84 8.28Q57.84 8.64 57.66 9.56Q57.48 10.48 57.28 11.50Q57.08 12.52 56.90 13.44Q56.72 14.36 56.72 14.64L56.72 14.64Q56.72 15.20 56.84 15.60L56.84 15.60Q56.56 16.04 56.56 17.36L56.56 17.36Q56.56 18.04 56.58 18.62Q56.60 19.20 56.60 19.56L56.60 19.56Q56.60 19.88 56.58 20.10Q56.56 20.32 56.56 20.44L56.56 20.44Q56.92 22.32 56.92 23.60L56.92 23.60Q56.92 24.04 56.84 24.52Q56.76 25 56.48 25.38Q56.20 25.76 55.66 26Q55.12 26.24 54.24 26.24L54.24 26.24Q53.64 26.24 53.32 26.14Q53 26.04 52.84 25.64Q52.68 25.24 52.60 24.52Q52.52 23.80 52.48 22.52L52.48 22.52Q52.52 22.40 52.52 21.64L52.52 21.64Q52.52 21.20 52.48 20.34Q52.44 19.48 52.44 18.68L52.44 18.68Q52.44 17.96 52.48 17.46Q52.52 16.96 52.60 16.64L52.60 16.64Q52.48 16.16 52.48 15.56L52.48 15.56Q52.48 15.28 52.56 14.72Q52.64 14.16 52.72 13.56Q52.80 12.96 52.88 12.40Q52.96 11.84 52.96 11.60L52.96 11.60L52.96 11.44Q53.04 11 53.18 10.16Q53.32 9.32 53.64 8.16L53.64 8.16Q53.84 7.36 54.38 6.98Q54.92 6.60 55.72 6.60L55.72 6.60Q56.52 6.60 57.14 7.04Q57.76 7.48 57.84 8.12Z"/></g>
</svg>
</g><g opacity="1" transform="rotate(0 175.5197 312.0333)">
<svg width="263.5589" height="26" x="175.5197" y="312.0333" version="1.1" preserveAspectRatio="none" viewBox="3.5086 -22.88 251.0514 24.759999999999998">
  <g transform="matrix(1 0 0 1 0 0)" class="text"><path id="id-D-YM9nyY412" d="M19.40-13.32L19.40-13.32Q19.24-11.08 19.04-9.42Q18.84-7.76 18.46-6.48Q18.08-5.20 17.46-4.22Q16.84-3.24 15.88-2.36L15.88-2.36Q15.16-1.72 14.54-1.36Q13.92-1 13.34-0.84Q12.76-0.68 12.24-0.66Q11.72-0.64 11.24-0.64L11.24-0.64Q10-0.64 9.08-0.90Q8.16-1.16 7.40-1.80Q6.64-2.44 6-3.48Q5.36-4.52 4.68-6.08L4.68-6.08Q4.28-7.60 4.06-8.86Q3.84-10.12 3.72-11.24Q3.60-12.36 3.58-13.38Q3.56-14.40 3.56-15.44L3.56-15.44Q3.56-16.04 3.52-16.86Q3.48-17.68 3.58-18.46Q3.68-19.24 4.02-19.78Q4.36-20.32 5.12-20.32L5.12-20.32Q6.28-20.32 6.64-19.08L6.64-19.08Q6.56-18.56 6.52-17.70Q6.48-16.84 6.48-15.64L6.48-15.64Q6.48-13.72 6.54-12.34Q6.60-10.96 6.64-10.76L6.64-10.76Q6.68-10.12 6.86-9.24Q7.04-8.36 7.30-7.48Q7.56-6.60 7.80-5.92Q8.04-5.24 8.20-5.04L8.20-5.04Q8.96-3.88 11.32-3.36L11.32-3.36Q14.08-4 15.20-5.84Q16.32-7.68 16.32-11.16L16.32-11.16Q16.32-12.28 16.40-13.28Q16.48-14.28 16.56-15.16L16.56-15.16L16.44-17.92L16.44-18.48Q16.44-19.76 16.66-20.38Q16.88-21 17.96-21L17.96-21Q18.52-21 18.84-20.72Q19.16-20.44 19.30-20.02Q19.44-19.60 19.48-19.08Q19.52-18.56 19.52-18.04L19.52-18.04Q19.52-17.80 19.48-17.32Q19.44-16.84 19.42-16.32Q19.40-15.80 19.36-15.30Q19.32-14.80 19.32-14.56L19.32-14.56Q19.32-14.24 19.34-13.92Q19.36-13.60 19.40-13.32Z M43.76-8.80L43.76-8.80L43.76-8.24Q43.76-7.08 43.64-4.52L43.64-4.52Q43.64-4.36 43.66-4.22Q43.68-4.08 43.68-3.96L43.68-3.96Q43.68-3.60 43.60-3.10Q43.52-2.60 43.36-2.16Q43.20-1.72 42.94-1.40Q42.68-1.08 42.32-1.08L42.32-1.08Q41.60-1.08 41.04-1.64L41.04-1.64Q41.04-2.28 37.84-6.08L37.84-6.08L37-7.68Q36.76-8.12 36.40-8.58Q36.04-9.04 35.68-9.48L35.68-9.48Q35.48-9.64 35.06-10.24Q34.64-10.84 34.22-11.52Q33.80-12.20 33.46-12.76Q33.12-13.32 33.12-13.32L33.12-13.32Q32.16-14.28 30.20-17.16L30.20-17.16Q30.20-16.20 30.14-15.40Q30.08-14.60 30-13.56Q29.92-12.52 29.76-11.08Q29.60-9.64 29.44-7.40L29.44-7.40L29.44-7.20Q29.44-6.88 29.30-6.20Q29.16-5.52 28.98-4.82Q28.80-4.12 28.64-3.58Q28.48-3.04 28.48-2.96L28.48-2.96Q28.08-1.96 27.04-1.96L27.04-1.96Q26.08-1.96 25.92-3.16L25.92-3.16L26.80-8.64Q26.88-10.20 27.28-13.60L27.28-13.60Q27.36-13.96 27.42-14.90Q27.48-15.84 27.58-16.88Q27.68-17.92 27.80-18.88Q27.92-19.84 28.08-20.28L28.08-20.28Q28.80-21.16 30.08-21.16L30.08-21.16Q30.60-20.96 31.52-19.60L31.52-19.60L32.84-17.60Q33.40-16.92 34.36-15.76Q35.32-14.60 36.60-12.92L36.60-12.92Q38.04-11 39.06-9.38Q40.08-7.76 40.84-6.48L40.84-6.48Q40.96-6.84 41.04-7.76Q41.12-8.68 41.12-10L41.12-10Q41.12-10.56 41.10-10.96Q41.08-11.36 41.04-11.56L41.04-11.56Q41.08-11.60 41.08-11.88L41.08-11.88Q41.08-12 41.02-12.50Q40.96-13 40.86-13.60Q40.76-14.20 40.70-14.72Q40.64-15.24 40.64-15.44L40.64-15.44Q40.64-15.68 40.72-15.92L40.72-15.92Q40.64-16.96 40.52-18.22Q40.40-19.48 40.20-21L40.20-21Q40.48-22.56 41.52-22.56L41.52-22.56Q42.48-22.56 42.96-21.56L42.96-21.56Q43-20.36 43.12-19.18Q43.24-18 43.36-16.56Q43.48-15.12 43.60-13.24Q43.72-11.36 43.76-8.80Z M67.20 0.60L67.20 0.60Q67.04 1.12 66.20 1.12L66.20 1.12Q65.40 1.12 65.04 0.76L65.04 0.76L63.64-3.20L63.16-5.12Q62.96-5.80 62.68-6.26Q62.40-6.72 62.16-6.92L62.16-6.92L59.24-6.80Q57.12-6.72 55.36-6.32Q53.60-5.92 52.92-5.48L52.92-5.48Q52.72-4.40 52.40-3.12Q52.08-1.84 51.68-0.36L51.68-0.36Q51.44 0.20 50.44 0.20L50.44 0.20Q49.44 0.20 49.44-0.44L49.44-0.44Q49.44-0.72 49.54-1.26Q49.64-1.80 49.80-2.44Q49.96-3.08 50.14-3.78Q50.32-4.48 50.48-5.12L50.48-5.12Q50.44-5.28 50.44-5.44Q50.44-5.60 50.44-5.76L50.44-5.76Q50.44-6.16 50.58-6.90Q50.72-7.64 50.90-8.38Q51.08-9.12 51.22-9.70Q51.36-10.28 51.36-10.40L51.36-10.40L52.72-14.04Q52.84-14.64 53.20-15.58Q53.56-16.52 53.96-17.46Q54.36-18.40 54.74-19.24Q55.12-20.08 55.24-20.52L55.24-20.52Q55.52-21.48 56.68-21.48L56.68-21.48Q57.60-21.48 57.92-20.80L57.92-20.80Q57.88-20.88 58.16-20.44Q58.44-20 58.86-19.26Q59.28-18.52 59.78-17.66Q60.28-16.80 60.72-15.98Q61.16-15.16 61.46-14.56Q61.76-13.96 61.76-13.80L61.76-13.80Q61.88-13.60 62.18-13Q62.48-12.40 62.82-11.70Q63.16-11 63.46-10.38Q63.76-9.76 63.92-9.60L63.92-9.60Q64.32-9.08 64.68-8.20Q65.04-7.32 65.30-6.44Q65.56-5.56 65.78-4.82Q66-4.08 66.16-3.84L66.16-3.84Q66.16-3.56 66.34-3Q66.52-2.44 66.74-1.82Q66.96-1.20 67.12-0.66Q67.28-0.12 67.28 0.12L67.28 0.12Q67.28 0.28 67.20 0.60ZM61.08-9.28L61.08-9.28L60.20-11.88Q59.80-13.04 59.12-13.84L59.12-13.84Q58.76-14.64 58.22-15.68Q57.68-16.72 56.96-17.96L56.96-17.96Q55.92-16.32 55.04-12.96L55.04-12.96Q54.12-11.08 53.52-8.40L53.52-8.40Q53.60-8.40 53.98-8.48Q54.36-8.56 54.80-8.64Q55.24-8.72 55.66-8.80Q56.08-8.88 56.28-8.88L56.28-8.88Q56.56-8.88 56.88-8.80L56.88-8.80Q57.24-8.88 57.76-8.92Q58.28-8.96 58.86-9Q59.44-9.04 60.02-9.10Q60.60-9.16 61.08-9.28Z M88.24-13.32L88.24-13.32Q88.08-11.08 87.88-9.42Q87.68-7.76 87.30-6.48Q86.92-5.20 86.30-4.22Q85.68-3.24 84.72-2.36L84.72-2.36Q84-1.72 83.38-1.36Q82.76-1 82.18-0.84Q81.60-0.68 81.08-0.66Q80.56-0.64 80.08-0.64L80.08-0.64Q78.84-0.64 77.92-0.90Q77-1.16 76.24-1.80Q75.48-2.44 74.84-3.48Q74.20-4.52 73.52-6.08L73.52-6.08Q73.12-7.60 72.90-8.86Q72.68-10.12 72.56-11.24Q72.44-12.36 72.42-13.38Q72.40-14.40 72.40-15.44L72.40-15.44Q72.40-16.04 72.36-16.86Q72.32-17.68 72.42-18.46Q72.52-19.24 72.86-19.78Q73.20-20.32 73.96-20.32L73.96-20.32Q75.12-20.32 75.48-19.08L75.48-19.08Q75.40-18.56 75.36-17.70Q75.32-16.84 75.32-15.64L75.32-15.64Q75.32-13.72 75.38-12.34Q75.44-10.96 75.48-10.76L75.48-10.76Q75.52-10.12 75.70-9.24Q75.88-8.36 76.14-7.48Q76.40-6.60 76.64-5.92Q76.88-5.24 77.04-5.04L77.04-5.04Q77.80-3.88 80.16-3.36L80.16-3.36Q82.92-4 84.04-5.84Q85.16-7.68 85.16-11.16L85.16-11.16Q85.16-12.28 85.24-13.28Q85.32-14.28 85.40-15.16L85.40-15.16L85.28-17.92L85.28-18.48Q85.28-19.76 85.50-20.38Q85.72-21 86.80-21L86.80-21Q87.36-21 87.68-20.72Q88-20.44 88.14-20.02Q88.28-19.60 88.32-19.08Q88.36-18.56 88.36-18.04L88.36-18.04Q88.36-17.80 88.32-17.32Q88.28-16.84 88.26-16.32Q88.24-15.80 88.20-15.30Q88.16-14.80 88.16-14.56L88.16-14.56Q88.16-14.24 88.18-13.92Q88.20-13.60 88.24-13.32Z M109.88-17.48L109.88-17.48Q109.56-17.32 109-17.32L109-17.32Q108.80-17.32 108.26-17.38Q107.72-17.44 107.18-17.52Q106.64-17.60 106.20-17.66Q105.76-17.72 105.72-17.72L105.72-17.72Q104.52-17.72 102.68-17.24L102.68-17.24L103.28-12.72Q103.48-10.84 103.58-9.44Q103.68-8.04 103.68-7.08L103.68-7.08Q103.68-6.76 103.68-6.48Q103.68-6.20 103.64-6L103.64-6Q103.68-5.44 103.68-4.92Q103.68-4.40 103.68-3.96L103.68-3.96Q103.68-2.48 103.56-1.64Q103.44-0.80 103.22-0.38Q103.00 0.04 102.66 0.14Q102.32 0.24 101.88 0.24L101.88 0.24Q101.28 0.24 101.02-0.14Q100.76-0.52 100.68-1.06Q100.60-1.60 100.62-2.16Q100.64-2.72 100.64-3.08L100.64-3.08Q100.64-3.88 100.76-4.52Q100.88-5.16 100.88-5.72L100.88-5.72Q100.88-5.84 100.82-6.44Q100.76-7.04 100.70-8Q100.64-8.96 100.60-10.22Q100.56-11.48 100.56-12.92L100.56-12.92Q100.44-15 99.80-16.84L99.80-16.84Q99.00-16.80 98.20-16.74Q97.40-16.68 96.68-16.60Q95.96-16.52 95.42-16.40Q94.88-16.28 94.60-16.16L94.60-16.16Q93.16-16.16 93.16-17.40L93.16-17.40Q93.16-17.92 93.60-18.56L93.60-18.56L100.16-19.76L102.28-20Q103.24-20.12 104.16-20.12L104.16-20.12Q104.52-20.12 104.50-20.14Q104.48-20.16 104.82-20.14Q105.16-20.12 106.20-20.06Q107.24-20 109.68-19.84L109.68-19.84Q110.24-19.52 110.24-18.68L110.24-18.68Q110.24-18 109.88-17.48Z M132.20-3.80L132.20-3.80Q132.20-3.56 132.24-3.20Q132.28-2.84 132.34-2.44Q132.40-2.04 132.46-1.70Q132.52-1.36 132.52-1.20L132.52-1.20Q132.52 0.16 131.24 0.16L131.24 0.16Q130.44 0.16 130-0.40L130-0.40L129.68-3.20L129.68-3.52Q129.68-3.76 129.66-4.06Q129.64-4.36 129.60-4.76L129.60-4.76L129.36-6.56Q129.48-7.28 129.48-7.92L129.48-7.92Q129.48-9.12 129.12-10.08L129.12-10.08Q128.76-10 127.52-9.82Q126.28-9.64 124.36-9.64L124.36-9.64Q123.56-9.64 123.12-9.70Q122.68-9.76 122.30-9.84Q121.92-9.92 121.48-9.98Q121.04-10.04 120.24-10.04L120.24-10.04L118.20-10.04Q118.12-8.84 118.06-7.88Q118.00-6.92 118.00-6.16L118.00-6.16Q118.00-4.68 118.20-3.96L118.20-3.96Q118.28-2.72 118.36-1.82Q118.44-0.92 118.52-0.32L118.52-0.32L118.64 0.88L118.64 1.12Q118.64 1.88 117.60 1.88L117.60 1.88Q117.12 1.88 116.78 1.68Q116.44 1.48 116.22 0.96Q116.00 0.44 115.86-0.44Q115.72-1.32 115.68-2.68L115.68-2.68Q115.48-3.60 115.48-4.80L115.48-4.80L115.48-5.36Q115.48-6.40 115.48-7.06Q115.48-7.72 115.44-8.04L115.44-8.04Q115.44-8.44 115.44-9.12Q115.44-9.80 115.48-10.54Q115.52-11.28 115.62-11.96Q115.72-12.64 115.92-13.04L115.92-13.04Q115.92-13.12 115.90-13.24Q115.88-13.36 115.88-13.48L115.88-13.48Q115.88-14.44 115.96-15.16Q116.04-15.88 116.16-16.54Q116.28-17.20 116.40-17.88Q116.52-18.56 116.60-19.48L116.60-19.48Q116.72-20.60 116.94-21.26Q117.16-21.92 117.96-21.92L117.96-21.92Q118.32-21.92 118.76-21.68Q119.20-21.44 119.20-21L119.20-21Q119.20-20.72 119.18-20.16Q119.16-19.60 119.06-18.62Q118.96-17.64 118.80-16.20Q118.64-14.76 118.40-12.72L118.40-12.72Q118.72-12.48 119.32-12.38Q119.92-12.28 120.52-12.26Q121.12-12.24 121.58-12.24Q122.04-12.24 122.04-12.24L122.04-12.24Q122.40-12.08 123.24-12.08L123.24-12.08Q125.64-12.08 125.64-12.12L125.64-12.12L125.56-12.12L126.00-12.12Q126.96-12.12 127.72-12.24Q128.48-12.36 129.12-12.56L129.12-12.56Q129.16-12.76 129.16-12.94Q129.16-13.12 129.16-13.32L129.16-13.32Q129.16-14.56 128.80-16.44L128.80-16.44L128.80-16.96Q128.80-18.24 128.56-19.40L128.56-19.40Q128.56-20.44 129.96-20.44L129.96-20.44Q130.76-20.44 131.10-19.72Q131.44-19 131.44-17.72L131.44-17.72L131.44-17.20Q131.44-14.36 131.88-12.60L131.88-12.60Q131.88-11.56 131.96-10.08Q132.04-8.60 132.20-6.68L132.20-6.68Q132.16-6.48 132.16-6.20Q132.16-5.92 132.16-5.56L132.16-5.56Q132.16-5.20 132.16-4.76Q132.16-4.32 132.20-3.80Z M156.88-10.56L156.80-7.68Q156.28-5.68 153.88-3.04L153.88-3.04Q153.52-2.88 153.02-2.52Q152.52-2.16 151.74-1.80Q150.96-1.44 149.86-1.16Q148.76-0.88 147.20-0.88L147.20-0.88Q144.20-0.88 142.12-2.48Q140.04-4.08 138.96-7.52L138.96-7.52Q138.92-7.80 138.92-8.08Q138.92-8.36 138.92-8.68L138.92-8.68Q138.92-11.32 139.46-13.26Q140-15.20 140.90-16.58Q141.80-17.96 142.92-18.88Q144.04-19.80 145.24-20.36L145.24-20.36Q147.36-20.92 149.24-20.92L149.24-20.92Q150.68-20.92 152.04-20.18Q153.40-19.44 154.44-18.10Q155.48-16.76 156.14-14.84Q156.80-12.92 156.88-10.56L156.88-10.56ZM154.04-7.60L154.04-7.60Q154.20-8.60 154.26-9.30Q154.32-10 154.32-10.44L154.32-10.44Q154.32-12.12 153.84-13.60Q153.36-15.08 152.68-16.18Q152-17.28 151.18-17.92Q150.36-18.56 149.72-18.56L149.72-18.56Q147.24-18.56 145.42-17.44Q143.60-16.32 142.88-14.32L142.88-14.32Q141.72-11.08 141.72-9.04L141.72-9.04Q141.72-7.96 142.08-6.94Q142.44-5.92 143.12-5.14Q143.80-4.36 144.76-3.88Q145.72-3.40 146.88-3.40L146.88-3.40Q148.60-3.40 149.78-3.72Q150.96-4.04 151.78-4.60Q152.60-5.16 153.12-5.92Q153.64-6.68 154.04-7.60Z M176.96-3.24L178.16-0.96Q178.16-0.48 177.72-0.10Q177.28 0.28 176.84 0.28L176.84 0.28Q176.72 0.28 176.62 0.34Q176.52 0.40 176.32 0.24Q176.12 0.08 175.68-0.42Q175.24-0.92 174.48-2.04L174.48-2.04L172.40-5.04Q172.32-5.28 171.96-5.84Q171.60-6.40 171.18-7.06Q170.76-7.72 170.38-8.30Q170.00-8.88 169.96-9.12L169.96-9.12Q169.80-9.12 169.32-9.06Q168.84-9 168.28-8.94Q167.72-8.88 167.18-8.82Q166.64-8.76 166.40-8.76L166.40-8.76Q166.20-8.76 166.04-8.76Q165.88-8.76 165.72-8.80L165.72-8.80Q165.56-6.60 165.48-5.52Q165.40-4.44 165.40-4.52L165.40-4.52Q165.44-4.20 165.44-3.86Q165.44-3.52 165.44-3.16L165.44-3.16Q165.44-2.12 165.34-1.04Q165.24 0.04 165.04 1.20L165.04 1.20Q164.72 1.68 164.08 1.68L164.08 1.68Q163.48 1.68 163.02 1.34Q162.56 1 162.56 0.20L162.56 0.20Q162.56-0.08 162.58-0.58Q162.60-1.08 162.64-1.56Q162.68-2.04 162.70-2.44Q162.72-2.84 162.72-3L162.72-3L162.72-3.24Q162.76-3.56 162.86-5.80Q162.96-8.04 163.12-12.64L163.12-12.64Q163.12-12.92 163.22-13.52Q163.32-14.12 163.44-14.82Q163.56-15.52 163.64-16.20Q163.72-16.88 163.72-17.36L163.72-17.36Q163.72-17.64 163.70-17.90Q163.68-18.16 163.64-18.44L163.64-18.44Q163.64-18.44 163.64-18.78Q163.64-19.12 163.70-19.62Q163.76-20.12 163.88-20.66Q164.00-21.20 164.20-21.52L164.20-21.52Q164.44-21.60 164.68-21.64Q164.92-21.68 165.24-21.68L165.24-21.68Q165.96-21.68 166.92-21.36L166.92-21.36Q167.76-21.44 168.42-21.44Q169.08-21.44 169.56-21.44L169.56-21.44Q169.96-21.44 170.28-21.42Q170.60-21.40 170.94-21.36Q171.28-21.32 171.68-21.22Q172.08-21.12 172.64-20.96L172.64-20.96L174.40-19.84Q175.80-18.80 176.32-17.66Q176.84-16.52 176.84-14.76L176.84-14.76Q176.76-14.08 176.70-13.64Q176.64-13.20 176.42-12.84Q176.20-12.48 175.78-12.08Q175.36-11.68 174.64-11.08L174.64-11.08Q174.00-10.52 173.50-10.22Q173.00-9.92 172.64-9.80L172.64-9.80Q172.68-9.60 173.06-9Q173.44-8.40 173.88-7.70Q174.32-7 174.68-6.38Q175.04-5.76 175.12-5.52L175.12-5.52Q175.80-5.24 176.96-3.24L176.96-3.24ZM174.04-14.32L174.04-14.32Q174.08-14.60 174.10-14.80Q174.12-15 174.12-15.20L174.12-15.20Q174.12-15.44 174.02-15.88Q173.92-16.32 173.56-16.82Q173.20-17.32 172.54-17.88Q171.88-18.44 170.76-18.92L170.76-18.92Q169.84-19.28 169.16-19.28L169.16-19.28Q168.92-19.28 168.60-19.22Q168.28-19.16 167.88-19.08L167.88-19.08L166.48-18.84Q166.48-18.04 166.46-17.70Q166.44-17.36 166.38-16.76Q166.32-16.16 166.20-15Q166.08-13.84 165.92-11.40L165.92-11.40Q166.40-11.24 167.12-11.24L167.12-11.24Q168.08-11.24 169.20-11.50Q170.32-11.76 171.32-12.18Q172.32-12.60 173.06-13.16Q173.80-13.72 174.04-14.32Z M189.00-0.40L189.00-0.40Q188.40-0.36 187.96-0.32Q187.52-0.28 187.10-0.24Q186.68-0.20 186.18-0.14Q185.68-0.08 184.92 0L184.92 0Q184.68-0.08 184.56-0.08L184.56-0.08Q184.40-0.08 184.08 0.02Q183.76 0.12 183.52 0.12L183.52 0.12Q182.40 0.12 182.40-0.96L182.40-0.96Q182.40-1.44 182.62-1.70Q182.84-1.96 183.20-2.14Q183.56-2.32 184.08-2.44Q184.60-2.56 185.20-2.72L185.20-2.72L185.20-3.16Q185.20-4.44 185.44-6.48L185.44-6.48Q185.32-6.88 185.32-7.52L185.32-7.52Q185.32-8.96 185.42-9.86Q185.52-10.76 185.52-10.80L185.52-10.80Q185.52-11.52 185.36-11.80L185.36-11.80L185.36-12.84Q185.36-13.60 185.30-14.46Q185.24-15.32 185.18-16.08Q185.12-16.84 185.08-17.42Q185.04-18 185.04-18.24L185.04-18.24L185.04-18.44Q184.28-18.44 183.20-18.56L183.20-18.56Q182.64-19.36 182.64-19.92L182.64-19.92Q182.64-20.20 182.72-20.42Q182.80-20.64 183.10-20.78Q183.40-20.92 183.94-20.98Q184.48-21.04 185.44-21.04L185.44-21.04Q186.12-21.04 186.66-20.96Q187.20-20.88 187.56-20.76L187.56-20.76Q188.48-20.76 189.06-20.72Q189.64-20.68 189.96-20.58Q190.28-20.48 190.38-20.28Q190.48-20.08 190.48-19.76L190.48-19.76Q190.48-19 189.68-18.32L189.68-18.32Q189.48-18.32 189.26-18.34Q189.04-18.36 188.80-18.36L188.80-18.36Q188.56-18.36 188.28-18.34Q188.00-18.32 187.68-18.32L187.68-18.32Q187.80-17.80 187.84-17.20Q187.88-16.60 187.92-16.02Q187.96-15.44 187.98-14.94Q188.00-14.44 188.08-14.12L188.08-14.12L188.20-10.24Q188.16-9.28 188.16-8.54Q188.16-7.80 188.16-7.28L188.16-7.28Q188.16-6.16 188.20-6.04L188.20-6.04L187.96-2.80Q188.20-2.80 188.60-2.78Q189.00-2.76 189.36-2.64Q189.72-2.52 190.00-2.26Q190.28-2 190.28-1.52L190.28-1.52Q190.28-1.08 189.98-0.76Q189.68-0.44 189.00-0.40Z M211.48-1.28L211.48-1.28Q211.40-1.24 211.04-1.24L211.04-1.24Q210.92-1.24 210.18-1.32Q209.44-1.40 208.48-1.48Q207.52-1.56 206.60-1.64Q205.68-1.72 205.28-1.72L205.28-1.72L204.56-1.72Q204.16-1.72 203.48-1.76Q202.80-1.80 201.98-1.86Q201.16-1.92 200.24-2Q199.32-2.08 198.44-2.20L198.44-2.20Q198.00-2.20 197.54-2.34Q197.08-2.48 196.66-2.72Q196.24-2.96 195.94-3.28Q195.64-3.60 195.52-3.96L195.52-3.96Q195.60-4.20 196.16-4.94Q196.72-5.68 197.42-6.56Q198.12-7.44 198.78-8.26Q199.44-9.08 199.68-9.44L199.68-9.44Q200.76-10.56 201.64-11.60Q202.52-12.64 203.36-13.66Q204.20-14.68 205.08-15.74Q205.96-16.80 207.04-18L207.04-18L204.48-18.16L204.04-18.16Q203.00-18.16 201.36-18Q199.72-17.84 198.12-17.72L198.12-17.72Q197.36-18 197.36-19.12L197.36-19.12Q197.36-19.48 197.58-19.78Q197.80-20.08 198.50-20.30Q199.20-20.52 200.48-20.66Q201.76-20.80 203.92-20.80L203.92-20.80Q205.28-20.80 206.80-20.62Q208.32-20.44 210.12-20L210.12-20Q210.44-19.56 210.44-18.72L210.44-18.72Q210.44-17.80 209.88-17.48L209.88-17.48Q209.28-16.76 208.86-16.28Q208.44-15.80 208.06-15.34Q207.68-14.88 207.22-14.36Q206.76-13.84 206.10-13.04Q205.44-12.24 204.48-11.02Q203.52-9.80 202.08-8L202.08-8Q201.84-7.56 201.46-7.10Q201.08-6.64 200.60-6.08L200.60-6.08L199.52-4.80Q203.00-4.20 204.52-4.20L204.52-4.20L205.20-4.20Q205.60-4.20 206.44-4.16Q207.28-4.12 208.14-4.06Q209.00-4 209.72-3.96Q210.44-3.92 210.60-3.92L210.60-3.92Q211.16-3.92 211.40-4L211.40-4Q212.36-3.80 212.36-2.80L212.36-2.80Q212.36-1.56 211.48-1.28Z M231.44-1.80L231.92-1.80Q232.92-1.40 232.92-0.36L232.92-0.36Q232.92 1.12 230.08 1.12L230.08 1.12Q229.68 1.12 229.20 1.10Q228.72 1.08 228.36 1.08L228.36 1.08Q227.84 1.08 227.46 1.08Q227.08 1.08 226.84 1.12L226.84 1.12Q226.76 1.08 225.80 1.02Q224.84 0.96 223 0.80L223 0.80Q222.04 0.88 221.50 0.92Q220.96 0.96 220.80 0.96L220.80 0.96Q219.32 0.96 218.68 0.48L218.68 0.48Q218.48-0.92 218.36-2.18Q218.24-3.44 218.24-4.60L218.24-4.60Q218.24-6.64 218.42-8.24Q218.60-9.84 218.60-10.88L218.60-10.88Q218.60-12.24 218.44-12.72L218.44-12.72L218.64-16.92Q218.96-20.08 219.56-21.20L219.56-21.20Q219.72-21.36 220.58-21.56Q221.44-21.76 222.40-21.94Q223.36-22.12 224.08-22.26Q224.80-22.40 224.64-22.40L224.64-22.40Q224.88-22.48 225.68-22.56Q226.48-22.64 227.36-22.72Q228.24-22.80 228.94-22.84Q229.64-22.88 229.60-22.88L229.60-22.88L229.72-22.88Q230.04-22.88 230.34-22.46Q230.64-22.04 230.64-21.48L230.64-21.48Q230.64-21.12 230.60-20.86Q230.56-20.60 230.32-20.40Q230.08-20.20 229.52-20.10Q228.96-20 227.92-19.96L227.92-19.96Q226.12-19.88 225.48-19.68L225.48-19.68L225.24-19.68Q224-19.68 222.24-19.12L222.24-19.12Q222.04-18.92 221.88-18.36Q221.72-17.80 221.62-17.12Q221.52-16.44 221.46-15.76Q221.40-15.08 221.40-14.68L221.40-14.68Q221.40-13.64 221.48-13.08Q221.56-12.52 221.52-12.52L221.52-12.52Q222.80-12.56 223.82-12.76Q224.84-12.96 225.64-12.96L225.64-12.96Q226-12.96 226.48-12.94Q226.96-12.92 227.48-12.92Q228-12.92 228.42-12.90Q228.84-12.88 229.08-12.88L229.08-12.88Q229.48-12.88 229.66-12.52Q229.84-12.16 229.84-11.64L229.84-11.64Q229.84-10.76 229.20-10.50Q228.56-10.24 226.92-10.24L226.92-10.24Q225-10.24 224.52-10.12L224.52-10.12Q224.32-10.12 224.06-10.14Q223.80-10.16 223.52-10.16L223.52-10.16Q223.08-10.16 222.58-10.14Q222.08-10.12 221.52-10.08L221.52-10.08Q221.40-9.92 221.32-9.34Q221.24-8.76 221.20-8.12Q221.16-7.48 221.16-6.98Q221.16-6.48 221.16-6.48L221.16-6.48L221.16-5.64Q221.16-4.24 221.04-2.04L221.04-2.04Q221.32-1.96 222.18-1.88Q223.04-1.80 224-1.74Q224.96-1.68 225.82-1.62Q226.68-1.56 226.92-1.52L226.92-1.52Q226.96-1.52 227.52-1.56Q228.08-1.60 229.12-1.68L229.12-1.68Q230.60-1.80 231.44-1.80L231.44-1.80Z M254.56-12.44L254.56-12.44Q254.48-9 252.36-6.08L252.36-6.08Q251.72-5.36 250.98-4.42Q250.24-3.48 249.36-2.32L249.36-2.32Q249.20-2.24 248.62-1.82Q248.04-1.40 247.30-0.88Q246.56-0.36 245.82 0.06Q245.08 0.48 244.64 0.52L244.64 0.52Q242.92 0.72 240.96 1.60L240.96 1.60Q239.12 1.60 238.84 0.28L238.84 0.28Q238.88 0.04 238.88-0.28Q238.88-0.60 238.88-1L238.88-1Q238.88-3 238.48-5.70Q238.08-8.40 238.08-11.64L238.08-11.64Q238.08-13.08 238.24-15.06Q238.40-17.04 238.72-19.56L238.72-19.56Q239.20-20.68 240.72-20.68L240.72-20.68Q241.40-20.68 241.92-20.24L241.92-20.24Q244.08-21 246.12-21L246.12-21Q247.44-21 248.60-20.68Q249.76-20.36 250.70-19.88Q251.64-19.40 252.32-18.80Q253-18.20 253.32-17.60L253.32-17.60Q254.56-14.04 254.56-12.44ZM251.76-12.88L251.76-13.44Q251.68-14.28 251.48-14.92Q251.28-15.56 250.86-16.08Q250.44-16.60 249.70-17.08Q248.96-17.56 247.80-18.08L247.80-18.08Q246.96-18.48 245.80-18.48L245.80-18.48Q245.44-18.48 244.80-18.40Q244.16-18.32 243.52-18.22Q242.88-18.12 242.38-18.04Q241.88-17.96 241.76-17.96L241.76-17.96Q241.48-17.96 241.36-18L241.36-18Q240.72-16.32 240.72-10.76L240.72-10.76Q240.72-10.28 240.74-9.32Q240.76-8.36 240.86-7.08Q240.96-5.80 241.18-4.34Q241.40-2.88 241.80-1.40L241.80-1.40Q242.76-1.48 246.28-3.44L246.28-3.44Q246.76-3.68 247.66-4.46Q248.56-5.24 249.48-6.46Q250.40-7.68 251.08-9.30Q251.76-10.92 251.76-12.88L251.76-12.88Z"/></g>
</svg>
</g><g opacity="1" transform="rotate(0 140.8421 162.0333)">
<svg width="14.6776" height="186" x="140.8421" y="162.0333" version="1.1" preserveAspectRatio="none" viewBox="6.48 -25.44 2.3200000000000003 29.4">
  <g transform="matrix(1 0 0 1 0 0)" class="icon3"><path id="id-lXek8z7fT1" d="M8.68-12.24L8.68-12.24Q8.68-12 8.74-11Q8.80-10 8.80-8.16L8.80-8.16Q8.80-6.80 8.60-6.32L8.60-6.32Q8.68-5.96 8.68-5.58Q8.68-5.20 8.68-4.76L8.68-4.76Q8.68-3.84 8.58-2.86Q8.48-1.88 8.44-0.96L8.44-0.96Q8.48-0.48 8.48-0.02Q8.48 0.44 8.48 0.88L8.48 0.88Q8.48 1.36 8.48 1.90Q8.48 2.44 8.42 2.90Q8.36 3.36 8.18 3.66Q8 3.96 7.64 3.96L7.64 3.96Q7 3.96 6.84 3.72L6.84 3.72Q6.48 2.24 6.48-0.04L6.48-0.04Q6.48-1.40 6.66-3.12Q6.84-4.84 6.84-6.56L6.84-6.56Q6.84-8.08 6.60-9.52L6.60-9.52Q6.60-9.60 6.64-10.30Q6.68-11 6.72-11.88Q6.76-12.76 6.84-13.54Q6.92-14.32 7.04-14.56L7.04-14.56Q6.84-15.36 6.84-17.48L6.84-17.48Q6.84-18.12 6.84-18.82Q6.84-19.52 6.86-20.40Q6.88-21.28 6.98-22.42Q7.08-23.56 7.28-25.16L7.28-25.16Q7.32-25.44 7.84-25.44L7.84-25.44Q8.60-25.44 8.70-25.04Q8.80-24.64 8.80-23.72L8.80-23.72Q8.80-23.12 8.76-22.32Q8.72-21.52 8.64-20.48L8.64-20.48Q8.68-19.20 8.68-17.14Q8.68-15.08 8.68-12.24Z"/></g>
</svg>
</g></svg></svg>