<svg version="1.1" preserveAspectRatio="none" xmlns="http://www.w3.org/2000/svg" width="500" height="500" viewBox="0 0 500 500"><rect width="100%" height="100%" fill="#FFFFFF" fill-opacity="1"/><svg viewBox="140.8421 162.0333 262.9932 186" width="333" height="235.5117927003436" x="83.5px" y="132.2441px" xmlns="http://www.w3.org/2000/svg" xmlns:xlink="http://www.w3.org/1999/xlink" preserveAspectRatio="none"><defs></defs><style>.companyName {fill:#0C0C0C;fill-opacity:1;}.icon3 {fill:#0C0C0C;fill-opacity:1;}.icon3-str {stroke:#0C0C0C;stroke-opacity:1;}.text {fill:#0C0C0C;fill-opacity:1;}</style><g opacity="1" transform="rotate(0 175.5197 172.0333)">
<svg width="228.3156" height="120" x="175.5197" y="172.0333" version="1.1" preserveAspectRatio="none" viewBox="3.92 -22.84 98.47999999999999 51.76">
  <g transform="matrix(1 0 0 1 0 0)" class="companyName"><path id="id-D6z1nYkh8" d="M16.76-2.80L17.24-2.80Q18.56-2.12 18.56-0.84L18.56-0.84Q18.56 0 18.14 0.36Q17.72 0.72 16.94 0.86Q16.16 1 15 1.02Q13.84 1.04 12.40 1.12L12.40 1.12Q11.92 0.96 8.88 0.80L8.88 0.80Q8.44 0.84 8.04 0.86Q7.64 0.88 7.28 0.88L7.28 0.88Q5.12 0.88 4.32 0.24L4.32 0.24Q4.12-1.36 4.02-2.72Q3.92-4.08 3.92-5.20L3.92-5.20Q3.92-6.96 4.06-8.26Q4.20-9.56 4.20-10.60L4.20-10.60Q4.20-11.88 4.08-12.60L4.08-12.60L4.32-16.80Q4.48-18.32 4.70-19.40Q4.92-20.48 5.24-21.04L5.24-21.04Q5.48-21.36 7.64-21.84L7.64-21.84L10.20-22.40Q10.44-22.44 11.20-22.52Q11.96-22.60 12.78-22.68Q13.60-22.76 14.24-22.80Q14.88-22.84 14.84-22.84L14.84-22.84L15-22.84Q15.44-22.84 15.90-22.24Q16.36-21.64 16.36-20.84L16.36-20.84Q16.36-20.44 16.34-20.12Q16.32-19.80 16.08-19.58Q15.84-19.36 15.28-19.24Q14.72-19.12 13.64-19.08L13.64-19.08Q11.88-19 11.24-18.72L11.24-18.72L11.04-18.72Q10-18.72 8.44-18.24L8.44-18.24Q8.28-18.04 8.20-17.54Q8.12-17.04 8.08-16.50Q8.04-15.96 8.02-15.58Q8-15.20 8-15.32L8-15.32Q7.96-15.12 7.94-14.92Q7.92-14.72 7.92-14.40L7.92-14.40Q7.92-14.12 7.94-13.78Q7.96-13.44 8-13.04L8-13.04Q9.24-13.16 10.02-13.30Q10.80-13.44 11.24-13.44L11.24-13.44Q12.08-13.44 12.88-13.48Q13.68-13.52 14.30-13.38Q14.92-13.24 15.28-12.82Q15.64-12.40 15.64-11.48L15.64-11.48Q15.64-10.44 14.98-10.12Q14.32-9.80 12.68-9.76L12.68-9.76Q10.76-9.68 10.36-9.60L10.36-9.60Q10.12-9.60 9.86-9.62Q9.60-9.64 9.28-9.64L9.28-9.64Q9.08-9.64 8.82-9.66Q8.56-9.68 8.32-9.66Q8.08-9.64 7.90-9.50Q7.72-9.36 7.72-9L7.72-9Q7.72-8.76 7.74-8.38Q7.76-8 7.76-7.68L7.76-7.68Q7.76-7.20 7.74-6.72Q7.72-6.24 7.70-5.70Q7.68-5.16 7.66-4.48Q7.64-3.80 7.64-2.88L7.64-2.88Q7.88-2.84 8.58-2.80Q9.28-2.76 10.06-2.72Q10.84-2.68 11.56-2.62Q12.28-2.56 12.52-2.52L12.52-2.52Q12.56-2.52 13.08-2.56Q13.60-2.60 14.60-2.68L14.60-2.68Q15.96-2.80 16.76-2.80L16.76-2.80Z M38.68-1.44L38.68-1.44Q38.68-0.72 38.04-0.10Q37.40 0.52 36.76 0.52L36.76 0.52Q36.44 0.52 36.24 0.32L36.24 0.32Q36.20 0.32 35.88-0.08Q35.56-0.48 35.12-1.08Q34.68-1.68 34.16-2.36Q33.64-3.04 33.20-3.64Q32.76-4.24 32.50-4.62Q32.24-5 32.28-4.96L32.28-4.96Q32.20-5.20 31.88-5.72Q31.56-6.24 31.18-6.82Q30.80-7.40 30.48-7.90Q30.16-8.40 30.12-8.52L30.12-8.52Q30.04-8.52 29.68-8.46Q29.32-8.40 28.88-8.34Q28.44-8.28 27.98-8.22Q27.52-8.16 27.28-8.16L27.28-8.16L27.08-8.16Q26.96-6.92 26.88-6.12Q26.80-5.32 26.80-4.92L26.80-4.92L26.80-3.68Q26.80-1.52 26.44 1L26.44 1Q25.96 1.72 25.04 1.72L25.04 1.72Q24.24 1.72 23.66 1.30Q23.08 0.88 23.08-0.16L23.08-0.16Q23.08-0.48 23.10-0.94Q23.12-1.40 23.14-1.88Q23.16-2.36 23.18-2.74Q23.20-3.12 23.20-3.24L23.20-3.24L23.20-3.44L23.48-9.48Q23.52-10 23.50-10.76Q23.48-11.52 23.56-12.52L23.56-12.52L23.88-14.92Q24.12-16.16 24.12-17.04L24.12-17.04Q24.12-17.32 24.10-17.58Q24.08-17.84 24.04-18.12L24.04-18.12Q24.04-18.12 24.16-19.52L24.16-19.52Q24.20-20.48 24.52-21.08Q24.84-21.68 26.04-21.68L26.04-21.68Q26.88-21.68 27.72-21.40L27.72-21.40Q28.52-21.48 29.14-21.48Q29.76-21.48 30.20-21.48L30.20-21.48Q30.60-21.48 30.92-21.46Q31.24-21.44 31.56-21.38Q31.88-21.32 32.28-21.22Q32.68-21.12 33.24-20.96L33.24-20.96L35-19.76Q36.48-18.60 36.98-17.44Q37.48-16.28 37.48-15L37.48-15Q37.48-14.12 37.42-13.50Q37.36-12.88 37-12.28Q36.64-11.68 35.88-11.04Q35.12-10.40 33.72-9.44L33.72-9.44Q34.64-8.28 35.80-6L35.80-6Q36.52-5.44 38.68-1.44ZM33.76-14.20L33.76-14.20Q33.80-14.36 33.80-14.64L33.80-14.64Q33.80-15.04 33.72-15.46Q33.64-15.88 33.36-16.30Q33.08-16.72 32.54-17.14Q32-17.56 31.04-17.96L31.04-17.96Q30.20-18.28 29.64-18.28L29.64-18.28Q29.48-18.24 29.20-18.20L29.20-18.20Q28.96-18.12 28.60-18.06Q28.24-18 27.80-17.92L27.80-17.92Q27.84-17.68 27.84-17.46Q27.84-17.24 27.78-16.64Q27.72-16.04 27.60-14.92Q27.48-13.80 27.32-11.80L27.32-11.80Q27.48-11.76 27.64-11.76Q27.80-11.76 27.96-11.76L27.96-11.76Q28.72-11.76 29.66-11.98Q30.60-12.20 31.44-12.54Q32.28-12.88 32.92-13.32Q33.56-13.76 33.76-14.20Z M59.20-1.44L59.20-1.44Q59.20-0.72 58.56-0.10Q57.92 0.52 57.28 0.52L57.28 0.52Q56.96 0.52 56.76 0.32L56.76 0.32Q56.72 0.32 56.40-0.08Q56.08-0.48 55.64-1.08Q55.20-1.68 54.68-2.36Q54.16-3.04 53.72-3.64Q53.28-4.24 53.02-4.62Q52.76-5 52.80-4.96L52.80-4.96Q52.72-5.20 52.40-5.72Q52.08-6.24 51.70-6.82Q51.32-7.40 51.00-7.90Q50.68-8.40 50.64-8.52L50.64-8.52Q50.56-8.52 50.20-8.46Q49.84-8.40 49.40-8.34Q48.96-8.28 48.50-8.22Q48.04-8.16 47.80-8.16L47.80-8.16L47.60-8.16Q47.48-6.92 47.40-6.12Q47.32-5.32 47.32-4.92L47.32-4.92L47.32-3.68Q47.32-1.52 46.96 1L46.96 1Q46.48 1.72 45.56 1.72L45.56 1.72Q44.76 1.72 44.18 1.30Q43.60 0.88 43.60-0.16L43.60-0.16Q43.60-0.48 43.62-0.94Q43.64-1.40 43.66-1.88Q43.68-2.36 43.70-2.74Q43.72-3.12 43.72-3.24L43.72-3.24L43.72-3.44L44.00-9.48Q44.04-10 44.02-10.76Q44.00-11.52 44.08-12.52L44.08-12.52L44.40-14.92Q44.64-16.16 44.64-17.04L44.64-17.04Q44.64-17.32 44.62-17.58Q44.60-17.84 44.56-18.12L44.56-18.12Q44.56-18.12 44.68-19.52L44.68-19.52Q44.72-20.48 45.04-21.08Q45.36-21.68 46.56-21.68L46.56-21.68Q47.40-21.68 48.24-21.40L48.24-21.40Q49.04-21.48 49.66-21.48Q50.28-21.48 50.72-21.48L50.72-21.48Q51.12-21.48 51.44-21.46Q51.76-21.44 52.08-21.38Q52.40-21.32 52.80-21.22Q53.20-21.12 53.76-20.96L53.76-20.96L55.52-19.76Q57-18.60 57.50-17.44Q58-16.28 58-15L58-15Q58-14.12 57.94-13.50Q57.88-12.88 57.52-12.28Q57.16-11.68 56.40-11.04Q55.64-10.40 54.24-9.44L54.24-9.44Q55.16-8.28 56.32-6L56.32-6Q57.04-5.44 59.20-1.44ZM54.28-14.20L54.28-14.20Q54.32-14.36 54.32-14.64L54.32-14.64Q54.32-15.04 54.24-15.46Q54.16-15.88 53.88-16.30Q53.60-16.72 53.06-17.14Q52.52-17.56 51.56-17.96L51.56-17.96Q50.72-18.28 50.16-18.28L50.16-18.28Q50.00-18.24 49.72-18.20L49.72-18.20Q49.48-18.12 49.12-18.06Q48.76-18 48.32-17.92L48.32-17.92Q48.36-17.68 48.36-17.46Q48.36-17.24 48.30-16.64Q48.24-16.04 48.12-14.92Q48.00-13.80 47.84-11.80L47.84-11.80Q48.00-11.76 48.16-11.76Q48.32-11.76 48.48-11.76L48.48-11.76Q49.24-11.76 50.18-11.98Q51.12-12.20 51.96-12.54Q52.80-12.88 53.44-13.32Q54.08-13.76 54.28-14.20Z M81.12-10.64L81.04-7.84Q80.52-5.76 78.08-3.04L78.08-3.04Q77.76-2.92 77.26-2.56Q76.76-2.20 75.98-1.82Q75.20-1.44 74.08-1.16Q72.96-0.88 71.44-0.88L71.44-0.88Q68.40-0.88 66.36-2.50Q64.32-4.12 63.20-7.60L63.20-7.60Q63.16-7.88 63.16-8.16Q63.16-8.44 63.16-8.76L63.16-8.76Q63.16-11.24 63.68-13.14Q64.20-15.04 65.08-16.44Q65.96-17.84 67.10-18.80Q68.24-19.76 69.48-20.36L69.48-20.36Q71.52-20.92 73.48-20.92L73.48-20.92Q74.88-20.92 76.24-20.20Q77.60-19.48 78.66-18.16Q79.72-16.84 80.38-14.94Q81.04-13.04 81.12-10.64L81.12-10.64ZM77.36-7.96L77.36-7.96Q77.64-9.60 77.64-10.52L77.64-10.52Q77.64-12.04 77.20-13.32Q76.76-14.60 76.16-15.54Q75.56-16.48 74.90-17.02Q74.24-17.56 73.80-17.56L73.80-17.56Q71.68-17.56 70.34-16.62Q69.00-15.68 68.24-14.36Q67.48-13.04 67.20-11.60Q66.92-10.16 66.92-9.16L66.92-9.16Q66.92-8.24 67.22-7.38Q67.52-6.52 68.10-5.86Q68.68-5.20 69.48-4.80Q70.28-4.40 71.32-4.40L71.32-4.40Q73.76-4.40 75.16-5.30Q76.56-6.20 77.36-7.96Z M102.40-1.44L102.40-1.44Q102.40-0.72 101.76-0.10Q101.12 0.52 100.48 0.52L100.48 0.52Q100.16 0.52 99.96 0.32L99.96 0.32Q99.92 0.32 99.60-0.08Q99.28-0.48 98.84-1.08Q98.40-1.68 97.88-2.36Q97.36-3.04 96.92-3.64Q96.48-4.24 96.22-4.62Q95.96-5 96-4.96L96-4.96Q95.92-5.20 95.60-5.72Q95.28-6.24 94.90-6.82Q94.52-7.40 94.20-7.90Q93.88-8.40 93.84-8.52L93.84-8.52Q93.76-8.52 93.40-8.46Q93.04-8.40 92.60-8.34Q92.16-8.28 91.70-8.22Q91.24-8.16 91-8.16L91-8.16L90.80-8.16Q90.68-6.92 90.60-6.12Q90.52-5.32 90.52-4.92L90.52-4.92L90.52-3.68Q90.52-1.52 90.16 1L90.16 1Q89.68 1.72 88.76 1.72L88.76 1.72Q87.96 1.72 87.38 1.30Q86.80 0.88 86.80-0.16L86.80-0.16Q86.80-0.48 86.82-0.94Q86.84-1.40 86.86-1.88Q86.88-2.36 86.90-2.74Q86.92-3.12 86.92-3.24L86.92-3.24L86.92-3.44L87.20-9.48Q87.24-10 87.22-10.76Q87.20-11.52 87.28-12.52L87.28-12.52L87.60-14.92Q87.84-16.16 87.84-17.04L87.84-17.04Q87.84-17.32 87.82-17.58Q87.80-17.84 87.76-18.12L87.76-18.12Q87.76-18.12 87.88-19.52L87.88-19.52Q87.92-20.48 88.24-21.08Q88.56-21.68 89.76-21.68L89.76-21.68Q90.60-21.68 91.44-21.40L91.44-21.40Q92.24-21.48 92.86-21.48Q93.48-21.48 93.92-21.48L93.92-21.48Q94.32-21.48 94.64-21.46Q94.96-21.44 95.28-21.38Q95.60-21.32 96-21.22Q96.40-21.12 96.96-20.96L96.96-20.96L98.72-19.76Q100.20-18.60 100.70-17.44Q101.20-16.28 101.20-15L101.20-15Q101.20-14.12 101.14-13.50Q101.08-12.88 100.72-12.28Q100.36-11.68 99.60-11.04Q98.84-10.40 97.44-9.44L97.44-9.44Q98.36-8.28 99.52-6L99.52-6Q100.24-5.44 102.40-1.44ZM97.48-14.20L97.48-14.20Q97.52-14.36 97.52-14.64L97.52-14.64Q97.52-15.04 97.44-15.46Q97.36-15.88 97.08-16.30Q96.80-16.72 96.26-17.14Q95.72-17.56 94.76-17.96L94.76-17.96Q93.92-18.28 93.36-18.28L93.36-18.28Q93.20-18.24 92.92-18.20L92.92-18.20Q92.68-18.12 92.32-18.06Q91.96-18 91.52-17.92L91.52-17.92Q91.56-17.68 91.56-17.46Q91.56-17.24 91.50-16.64Q91.44-16.04 91.32-14.92Q91.20-13.80 91.04-11.80L91.04-11.80Q91.20-11.76 91.36-11.76Q91.52-11.76 91.68-11.76L91.68-11.76Q92.44-11.76 93.38-11.98Q94.32-12.20 95.16-12.54Q96-12.88 96.64-13.32Q97.28-13.76 97.48-14.20Z M21.52 22.88L21.52 22.88Q21.44 22.92 17.68 23.04L17.68 23.04Q17.48 24.88 17.22 26.24Q16.96 27.60 16.64 28.52L16.64 28.52Q16.24 28.92 15.36 28.92L15.36 28.92Q13.72 28.92 13.44 28.08L13.44 28.08Q13.44 26.52 14.08 23.20L14.08 23.20Q12.64 23.20 12.08 23.18Q11.52 23.16 11.18 23.16Q10.84 23.16 10.34 23.14Q9.84 23.12 8.52 23.12L8.52 23.12Q8.08 23.12 7.42 22.98Q6.76 22.84 6.10 22.62Q5.44 22.40 4.86 22.16Q4.28 21.92 4.04 21.68L4.04 21.68Q3.92 21.32 3.92 20.84L3.92 20.84Q3.92 19.60 4.68 17.96L4.68 17.96Q5.44 16.96 6.72 13.64L6.72 13.64L10.04 8.52Q10.44 8.16 11.12 8.16L11.12 8.16Q12.80 8.16 12.80 9.56L12.80 9.56Q12.80 9.60 12.60 10.08Q12.40 10.56 12.02 11.36Q11.64 12.16 11.08 13.18Q10.52 14.20 9.80 15.28L9.80 15.28L7.84 19.84Q7.96 19.96 8.20 19.96L8.20 19.96Q8.52 19.96 8.68 19.86Q8.84 19.76 8.84 19.80L8.84 19.80Q9.04 19.76 9.26 19.74Q9.48 19.72 9.72 19.72L9.72 19.72Q10.16 19.72 10.66 19.78Q11.16 19.84 11.76 19.92L11.76 19.92Q12.88 19.92 14.40 19.80L14.40 19.80L14.64 16.72Q14.60 16.36 14.58 16Q14.56 15.64 14.56 15.28L14.56 15.28Q14.56 14.40 14.70 13.60Q14.84 12.80 14.84 11.88L14.84 11.88Q14.84 11.64 14.80 11.02Q14.76 10.40 14.70 9.72Q14.64 9.04 14.60 8.48Q14.56 7.92 14.56 7.84L14.56 7.84Q14.96 6.84 15.92 6.84L15.92 6.84Q16.08 6.88 16.24 6.88L16.24 6.88Q16.40 6.92 16.64 6.92Q16.88 6.92 17.20 6.96L17.20 6.96Q17.32 7.12 17.50 7.70Q17.68 8.28 17.84 9.02Q18 9.76 18.12 10.54Q18.24 11.32 18.24 11.88L18.24 11.88Q18.24 12.48 18.20 13.28Q18.16 14.08 18.12 15.36L18.12 15.36Q18.16 15.52 18.16 16.12L18.16 16.12Q18.16 16.68 18.12 17.56Q18.08 18.44 18 19.64L18 19.64L18.40 19.64Q18.96 19.64 19.66 19.70Q20.36 19.76 21.28 19.84L21.28 19.84Q22.12 20.08 22.12 21.40L22.12 21.40Q22.12 22.36 21.52 22.88Z M42.60 16.60L42.60 16.60Q42.52 17.48 42.20 18.62Q41.88 19.76 41.46 20.90Q41.04 22.04 40.54 23.04Q40.04 24.04 39.56 24.64L39.56 24.64L37.20 26.28Q35.68 27.12 34.08 27.12L34.08 27.12Q32.44 27.12 31.06 26.26Q29.68 25.40 28.66 23.98Q27.64 22.56 27.06 20.78Q26.48 19 26.48 17.12L26.48 17.12Q26.48 14.96 27.38 13.12Q28.28 11.28 30.44 9.48L30.44 9.48Q31.48 8.60 32.44 8.16Q33.40 7.72 34.22 7.54Q35.04 7.36 35.68 7.34Q36.32 7.32 36.76 7.32L36.76 7.32Q38.28 7.32 39.32 7.80Q40.36 8.28 41.04 9.36Q41.72 10.44 42.08 12.22Q42.44 14 42.60 16.60ZM38.56 18.88L38.56 18.88Q39.08 17.44 39.08 15.76L39.08 15.76Q39.08 14.88 38.92 13.98Q38.76 13.08 38.44 12.36Q38.12 11.64 37.62 11.18Q37.12 10.72 36.48 10.72L36.48 10.72Q35.36 10.72 34.22 11.12Q33.08 11.52 32.18 12.30Q31.28 13.08 30.72 14.26Q30.16 15.44 30.16 17L30.16 17Q30.20 17.48 30.22 18.04Q30.24 18.60 30.40 19.24L30.40 19.24L30.80 20.88Q32.28 23.56 34.16 23.56L34.16 23.56Q35.52 23.56 36.66 22.30Q37.80 21.04 38.56 18.88Z M65.52 16.60L65.52 16.60Q65.44 17.48 65.12 18.62Q64.80 19.76 64.38 20.90Q63.96 22.04 63.46 23.04Q62.96 24.04 62.48 24.64L62.48 24.64L60.12 26.28Q58.60 27.12 57 27.12L57 27.12Q55.36 27.12 53.98 26.26Q52.60 25.40 51.58 23.98Q50.56 22.56 49.98 20.78Q49.40 19 49.40 17.12L49.40 17.12Q49.40 14.96 50.30 13.12Q51.20 11.28 53.36 9.48L53.36 9.48Q54.40 8.60 55.36 8.16Q56.32 7.72 57.14 7.54Q57.96 7.36 58.60 7.34Q59.24 7.32 59.68 7.32L59.68 7.32Q61.20 7.32 62.24 7.80Q63.28 8.28 63.96 9.36Q64.64 10.44 65 12.22Q65.36 14 65.52 16.60ZM61.48 18.88L61.48 18.88Q62 17.44 62 15.76L62 15.76Q62 14.88 61.84 13.98Q61.68 13.08 61.36 12.36Q61.04 11.64 60.54 11.18Q60.04 10.72 59.40 10.72L59.40 10.72Q58.28 10.72 57.14 11.12Q56 11.52 55.10 12.30Q54.20 13.08 53.64 14.26Q53.08 15.44 53.08 17L53.08 17Q53.12 17.48 53.14 18.04Q53.16 18.60 53.32 19.24L53.32 19.24L53.72 20.88Q55.20 23.56 57.08 23.56L57.08 23.56Q58.44 23.56 59.58 22.30Q60.72 21.04 61.48 18.88Z"/></g>
</svg>
</g><g opacity="1" transform="rotate(0 175.5197 312.0333)">
<svg width="225.5362" height="26" x="175.5197" y="312.0333" version="1.1" preserveAspectRatio="none" viewBox="3.6 -23.904 225.79999999999998 26.024">
  <g transform="matrix(1 0 0 1 0 0)" class="text"><path id="id-D-YM9nyY411" d="M20.52-6.96L20.52-6.96L20.52-6.68Q20.52-5.36 19.44-3.80Q18.36-2.24 15.72-0.76L15.72-0.76Q14.64-0.16 13.76 0.20Q12.88 0.56 11.98 0.82Q11.08 1.08 10.10 1.34Q9.12 1.60 7.84 2L7.84 2Q7.40 2.04 6.96 2.08L6.96 2.08Q6.60 2.12 6.22 2.12Q5.84 2.12 5.60 2.12L5.60 2.12Q4.96 2.12 4.62 1.96Q4.28 1.80 4.12 1.44Q3.96 1.08 3.92 0.46Q3.88-0.16 3.88-1.12L3.88-1.12Q3.88-1.64 3.96-2.04L3.96-2.04Q3.84-2.32 3.84-3.24L3.84-3.24Q3.84-4.72 3.90-5.78Q3.96-6.84 4.04-7.58Q4.12-8.32 4.18-8.88Q4.24-9.44 4.24-9.96L4.24-9.96Q4.24-10.48 4.22-11.06Q4.20-11.64 4.20-12.32L4.20-12.32L4.64-18.20Q4.60-18.52 4.44-19.08Q4.28-19.64 4.10-20.16Q3.92-20.68 3.76-21.06Q3.60-21.44 3.60-21.40L3.60-21.40Q3.60-21.56 3.74-21.82Q3.88-22.08 4.20-22.32Q4.52-22.56 5.02-22.74Q5.52-22.92 6.28-22.92L6.28-22.92L6.48-22.92Q8.52-23.88 10.44-23.88L10.44-23.88Q10.60-23.88 10.96-23.90Q11.32-23.92 11.82-23.84Q12.32-23.76 12.94-23.50Q13.56-23.24 14.28-22.68L14.28-22.68L15.80-21.44L16.36-20.36Q16.76-19.60 16.76-18.80L16.76-18.80Q16.76-16.76 14.72-14.72L14.72-14.72Q15.12-14.60 15.78-14.30Q16.44-14 17.10-13.66Q17.76-13.32 18.28-13.04Q18.80-12.76 18.92-12.64L18.92-12.64Q19.48-12 19.88-10.40Q20.28-8.80 20.52-6.96ZM13.80-19.56L13.80-19.56Q13.76-19.72 13.52-20.08Q13.28-20.44 12.86-20.76Q12.44-21.08 11.88-21.34Q11.32-21.60 10.64-21.60L10.64-21.60Q8.24-21.60 7.32-20.68L7.32-20.68Q7.24-20.36 7.22-19.96Q7.20-19.56 7.18-19Q7.16-18.44 7.12-17.68Q7.08-16.92 6.92-15.92L6.92-15.92Q6.84-15.36 6.82-15Q6.80-14.64 6.80-14.44L6.80-14.44Q6.80-14.16 6.88-14.08L6.88-14.08Q8.24-14.32 9-14.46Q9.76-14.60 10.20-14.76Q10.64-14.92 11-15.16Q11.36-15.40 11.96-15.88L11.96-15.88Q13.92-16.88 13.92-18.60L13.92-18.60Q13.92-19 13.80-19.56ZM17.56-5.88L17.56-5.88Q17.80-6.48 17.80-7.20L17.80-7.20Q17.80-8.44 17.48-9.32Q17.16-10.20 16.62-10.78Q16.08-11.36 15.34-11.74Q14.60-12.12 13.72-12.36L13.72-12.36Q12.44-12.72 11.88-12.72L11.88-12.72Q11.44-12.72 10.76-12.54Q10.08-12.36 9.34-12.14Q8.60-11.92 7.92-11.72Q7.24-11.52 6.84-11.48L6.84-11.48Q6.88-11.16 6.88-10.82Q6.88-10.48 6.88-10.12L6.88-10.12Q6.88-8.80 6.66-7.24Q6.44-5.68 6.44-3.72L6.44-3.72Q6.44-3.16 6.48-2.58Q6.52-2 6.52-1.60L6.52-1.60Q6.52-1.32 6.50-1.10Q6.48-0.88 6.48-0.72L6.48-0.72Q6.68-0.68 6.92-0.66Q7.16-0.64 7.40-0.64L7.40-0.64Q7.96-0.64 8.88-0.88Q9.80-1.12 10.70-1.40Q11.60-1.68 12.32-1.94Q13.04-2.20 13.24-2.24L13.24-2.24Q13.84-2.48 14.52-2.92Q15.20-3.36 15.84-3.88Q16.48-4.40 16.94-4.92Q17.40-5.44 17.56-5.88Z M42.72 0.60L42.72 0.60Q42.56 1.12 41.72 1.12L41.72 1.12Q40.92 1.12 40.56 0.76L40.56 0.76L39.16-3.20L38.68-5.12Q38.48-5.80 38.20-6.26Q37.92-6.72 37.68-6.92L37.68-6.92L34.76-6.80Q32.64-6.72 30.88-6.32Q29.12-5.92 28.44-5.48L28.44-5.48Q28.24-4.40 27.92-3.12Q27.60-1.84 27.20-0.36L27.20-0.36Q26.96 0.20 25.96 0.20L25.96 0.20Q24.96 0.20 24.96-0.44L24.96-0.44Q24.96-0.72 25.06-1.26Q25.16-1.80 25.32-2.44Q25.48-3.08 25.66-3.78Q25.84-4.48 26-5.12L26-5.12Q25.96-5.28 25.96-5.44Q25.96-5.60 25.96-5.76L25.96-5.76Q25.96-6.16 26.10-6.90Q26.24-7.64 26.42-8.38Q26.60-9.12 26.74-9.70Q26.88-10.28 26.88-10.40L26.88-10.40L28.24-14.04Q28.36-14.64 28.72-15.58Q29.08-16.52 29.48-17.46Q29.88-18.40 30.26-19.24Q30.64-20.08 30.76-20.52L30.76-20.52Q31.04-21.48 32.20-21.48L32.20-21.48Q33.12-21.48 33.44-20.80L33.44-20.80Q33.40-20.88 33.68-20.44Q33.96-20 34.38-19.26Q34.80-18.52 35.30-17.66Q35.80-16.80 36.24-15.98Q36.68-15.16 36.98-14.56Q37.28-13.96 37.28-13.80L37.28-13.80Q37.40-13.60 37.70-13Q38-12.40 38.34-11.70Q38.68-11 38.98-10.38Q39.28-9.76 39.44-9.60L39.44-9.60Q39.84-9.08 40.20-8.20Q40.56-7.32 40.82-6.44Q41.08-5.56 41.30-4.82Q41.52-4.08 41.68-3.84L41.68-3.84Q41.68-3.56 41.86-3Q42.04-2.44 42.26-1.82Q42.48-1.20 42.64-0.66Q42.80-0.12 42.80 0.12L42.80 0.12Q42.80 0.28 42.72 0.60ZM36.60-9.28L36.60-9.28L35.72-11.88Q35.32-13.04 34.64-13.84L34.64-13.84Q34.28-14.64 33.74-15.68Q33.20-16.72 32.48-17.96L32.48-17.96Q31.44-16.32 30.56-12.96L30.56-12.96Q29.64-11.08 29.04-8.40L29.04-8.40Q29.12-8.40 29.50-8.48Q29.88-8.56 30.32-8.64Q30.76-8.72 31.18-8.80Q31.60-8.88 31.80-8.88L31.80-8.88Q32.08-8.88 32.40-8.80L32.40-8.80Q32.76-8.88 33.28-8.92Q33.80-8.96 34.38-9Q34.96-9.04 35.54-9.10Q36.12-9.16 36.60-9.28Z M64.84-12.44L64.84-12.44Q64.76-9 62.64-6.08L62.64-6.08Q62-5.36 61.26-4.42Q60.52-3.48 59.64-2.32L59.64-2.32Q59.48-2.24 58.90-1.82Q58.32-1.40 57.58-0.88Q56.84-0.36 56.10 0.06Q55.36 0.48 54.92 0.52L54.92 0.52Q53.20 0.72 51.24 1.60L51.24 1.60Q49.40 1.60 49.12 0.28L49.12 0.28Q49.16 0.04 49.16-0.28Q49.16-0.60 49.16-1L49.16-1Q49.16-3 48.76-5.70Q48.36-8.40 48.36-11.64L48.36-11.64Q48.36-13.08 48.52-15.06Q48.68-17.04 49-19.56L49-19.56Q49.48-20.68 51-20.68L51-20.68Q51.68-20.68 52.20-20.24L52.20-20.24Q54.36-21 56.40-21L56.40-21Q57.72-21 58.88-20.68Q60.04-20.36 60.98-19.88Q61.92-19.40 62.60-18.80Q63.28-18.20 63.60-17.60L63.60-17.60Q64.84-14.04 64.84-12.44ZM62.04-12.88L62.04-13.44Q61.96-14.28 61.76-14.92Q61.56-15.56 61.14-16.08Q60.72-16.60 59.98-17.08Q59.24-17.56 58.08-18.08L58.08-18.08Q57.24-18.48 56.08-18.48L56.08-18.48Q55.72-18.48 55.08-18.40Q54.44-18.32 53.80-18.22Q53.16-18.12 52.66-18.04Q52.16-17.96 52.04-17.96L52.04-17.96Q51.76-17.96 51.64-18L51.64-18Q51-16.32 51-10.76L51-10.76Q51-10.28 51.02-9.32Q51.04-8.36 51.14-7.08Q51.24-5.80 51.46-4.34Q51.68-2.88 52.08-1.40L52.08-1.40Q53.04-1.48 56.56-3.44L56.56-3.44Q57.04-3.68 57.94-4.46Q58.84-5.24 59.76-6.46Q60.68-7.68 61.36-9.30Q62.04-10.92 62.04-12.88L62.04-12.88Z M101.80-3.24L103-0.96Q103-0.48 102.56-0.10Q102.12 0.28 101.68 0.28L101.68 0.28Q101.56 0.28 101.46 0.34Q101.36 0.40 101.16 0.24Q100.96 0.08 100.52-0.42Q100.08-0.92 99.32-2.04L99.32-2.04L97.24-5.04Q97.16-5.28 96.80-5.84Q96.44-6.40 96.02-7.06Q95.60-7.72 95.22-8.30Q94.84-8.88 94.80-9.12L94.80-9.12Q94.64-9.12 94.16-9.06Q93.68-9 93.12-8.94Q92.56-8.88 92.02-8.82Q91.48-8.76 91.24-8.76L91.24-8.76Q91.04-8.76 90.88-8.76Q90.72-8.76 90.56-8.80L90.56-8.80Q90.40-6.60 90.32-5.52Q90.24-4.44 90.24-4.52L90.24-4.52Q90.28-4.20 90.28-3.86Q90.28-3.52 90.28-3.16L90.28-3.16Q90.28-2.12 90.18-1.04Q90.08 0.04 89.88 1.20L89.88 1.20Q89.56 1.68 88.92 1.68L88.92 1.68Q88.32 1.68 87.86 1.34Q87.40 1 87.40 0.20L87.40 0.20Q87.40-0.08 87.42-0.58Q87.44-1.08 87.48-1.56Q87.52-2.04 87.54-2.44Q87.56-2.84 87.56-3L87.56-3L87.56-3.24Q87.60-3.56 87.70-5.80Q87.80-8.04 87.96-12.64L87.96-12.64Q87.96-12.92 88.06-13.52Q88.16-14.12 88.28-14.82Q88.40-15.52 88.48-16.20Q88.56-16.88 88.56-17.36L88.56-17.36Q88.56-17.64 88.54-17.90Q88.52-18.16 88.48-18.44L88.48-18.44Q88.48-18.44 88.48-18.78Q88.48-19.12 88.54-19.62Q88.60-20.12 88.72-20.66Q88.84-21.20 89.04-21.52L89.04-21.52Q89.28-21.60 89.52-21.64Q89.76-21.68 90.08-21.68L90.08-21.68Q90.80-21.68 91.76-21.36L91.76-21.36Q92.60-21.44 93.26-21.44Q93.92-21.44 94.40-21.44L94.40-21.44Q94.80-21.44 95.12-21.42Q95.44-21.40 95.78-21.36Q96.12-21.32 96.52-21.22Q96.92-21.12 97.48-20.96L97.48-20.96L99.24-19.84Q100.64-18.80 101.16-17.66Q101.68-16.52 101.68-14.76L101.68-14.76Q101.60-14.08 101.54-13.64Q101.48-13.20 101.26-12.84Q101.04-12.48 100.62-12.08Q100.20-11.68 99.48-11.08L99.48-11.08Q98.84-10.52 98.34-10.22Q97.84-9.92 97.48-9.80L97.48-9.80Q97.52-9.60 97.90-9Q98.28-8.40 98.72-7.70Q99.16-7 99.52-6.38Q99.88-5.76 99.96-5.52L99.96-5.52Q100.64-5.24 101.80-3.24L101.80-3.24ZM98.88-14.32L98.88-14.32Q98.92-14.60 98.94-14.80Q98.96-15 98.96-15.20L98.96-15.20Q98.96-15.44 98.86-15.88Q98.76-16.32 98.40-16.82Q98.04-17.32 97.38-17.88Q96.72-18.44 95.60-18.92L95.60-18.92Q94.68-19.28 94-19.28L94-19.28Q93.76-19.28 93.44-19.22Q93.12-19.16 92.72-19.08L92.72-19.08L91.32-18.84Q91.32-18.04 91.30-17.70Q91.28-17.36 91.22-16.76Q91.16-16.16 91.04-15Q90.92-13.84 90.76-11.40L90.76-11.40Q91.24-11.24 91.96-11.24L91.96-11.24Q92.92-11.24 94.04-11.50Q95.16-11.76 96.16-12.18Q97.16-12.60 97.90-13.16Q98.64-13.72 98.88-14.32Z M121.64-1.80L122.12-1.80Q123.12-1.40 123.12-0.36L123.12-0.36Q123.12 1.12 120.28 1.12L120.28 1.12Q119.88 1.12 119.40 1.10Q118.92 1.08 118.56 1.08L118.56 1.08Q118.04 1.08 117.66 1.08Q117.28 1.08 117.04 1.12L117.04 1.12Q116.96 1.08 116.00 1.02Q115.04 0.96 113.20 0.80L113.20 0.80Q112.24 0.88 111.70 0.92Q111.16 0.96 111.00 0.96L111.00 0.96Q109.52 0.96 108.88 0.48L108.88 0.48Q108.68-0.92 108.56-2.18Q108.44-3.44 108.44-4.60L108.44-4.60Q108.44-6.64 108.62-8.24Q108.80-9.84 108.80-10.88L108.80-10.88Q108.80-12.24 108.64-12.72L108.64-12.72L108.84-16.92Q109.16-20.08 109.76-21.20L109.76-21.20Q109.92-21.36 110.78-21.56Q111.64-21.76 112.60-21.94Q113.56-22.12 114.28-22.26Q115.00-22.40 114.84-22.40L114.84-22.40Q115.08-22.48 115.88-22.56Q116.68-22.64 117.56-22.72Q118.44-22.80 119.14-22.84Q119.84-22.88 119.80-22.88L119.80-22.88L119.92-22.88Q120.24-22.88 120.54-22.46Q120.84-22.04 120.84-21.48L120.84-21.48Q120.84-21.12 120.80-20.86Q120.76-20.60 120.52-20.40Q120.28-20.20 119.72-20.10Q119.16-20 118.12-19.96L118.12-19.96Q116.32-19.88 115.68-19.68L115.68-19.68L115.44-19.68Q114.20-19.68 112.44-19.12L112.44-19.12Q112.24-18.92 112.08-18.36Q111.92-17.80 111.82-17.12Q111.72-16.44 111.66-15.76Q111.60-15.08 111.60-14.68L111.60-14.68Q111.60-13.64 111.68-13.08Q111.76-12.52 111.72-12.52L111.72-12.52Q113.00-12.56 114.02-12.76Q115.04-12.96 115.84-12.96L115.84-12.96Q116.20-12.96 116.68-12.94Q117.16-12.92 117.68-12.92Q118.20-12.92 118.62-12.90Q119.04-12.88 119.28-12.88L119.28-12.88Q119.68-12.88 119.86-12.52Q120.04-12.16 120.04-11.64L120.04-11.64Q120.04-10.76 119.40-10.50Q118.76-10.24 117.12-10.24L117.12-10.24Q115.20-10.24 114.72-10.12L114.72-10.12Q114.52-10.12 114.26-10.14Q114.00-10.16 113.72-10.16L113.72-10.16Q113.28-10.16 112.78-10.14Q112.28-10.12 111.72-10.08L111.72-10.08Q111.60-9.92 111.52-9.34Q111.44-8.76 111.40-8.12Q111.36-7.48 111.36-6.98Q111.36-6.48 111.36-6.48L111.36-6.48L111.36-5.64Q111.36-4.24 111.24-2.04L111.24-2.04Q111.52-1.96 112.38-1.88Q113.24-1.80 114.20-1.74Q115.16-1.68 116.02-1.62Q116.88-1.56 117.12-1.52L117.12-1.52Q117.16-1.52 117.72-1.56Q118.28-1.60 119.32-1.68L119.32-1.68Q120.80-1.80 121.64-1.80L121.64-1.80Z M144.44-2.96L146.16-1.32Q146.12-0.56 145.66 0Q145.20 0.56 144.76 0.56L144.76 0.56Q144.12 0.40 142.48-0.96L142.48-0.96L140.72-2.36Q140.20-2 139.46-1.56Q138.72-1.12 137.80-0.56L137.80-0.56Q136-0.04 134.12-0.04L134.12-0.04Q132.96-0.04 132.16-0.24Q131.36-0.44 130.70-0.92Q130.04-1.40 129.42-2.16Q128.80-2.92 128.00-4L128.00-4Q126.64-5.84 126.64-9.16L126.64-9.16Q126.64-10.80 126.96-12.36Q127.28-13.92 127.80-15.28Q128.32-16.64 129.02-17.76Q129.72-18.88 130.52-19.68L130.52-19.68Q131.04-20.20 131.78-20.66Q132.52-21.12 133.48-21.56L133.48-21.56Q135.60-22.12 137.52-22.12L137.52-22.12Q138.40-22.12 139.24-22L139.24-22Q140.56-21.44 141.64-20.34Q142.72-19.24 143.50-17.78Q144.28-16.32 144.72-14.60Q145.16-12.88 145.16-11.08L145.16-11.08Q145.16-10.64 144.84-9.64Q144.52-8.64 144.10-7.60Q143.68-6.56 143.26-5.68Q142.84-4.80 142.64-4.60L142.64-4.60Q142.96-4.28 143.40-3.88Q143.84-3.48 144.44-2.96L144.44-2.96ZM142.36-10.56L142.36-10.56Q142.44-10.80 142.44-11.08Q142.44-11.36 142.44-11.64L142.44-11.64Q142.44-13.04 142.04-14.48Q141.64-15.92 141.02-17.10Q140.40-18.28 139.58-19.02Q138.76-19.76 137.92-19.76L137.92-19.76Q136.28-19.76 134.76-19.14Q133.24-18.52 132.08-17.28Q130.92-16.04 130.20-14.18Q129.48-12.32 129.48-9.84L129.48-9.84Q129.48-6.32 130.68-4.72L130.68-4.72Q130.88-5.88 131.32-6.58Q131.76-7.28 132.36-7.68Q132.96-8.08 133.64-8.20Q134.32-8.32 135.04-8.32L135.04-8.32Q136.88-8.32 138.20-7.68L138.20-7.68L140.64-6.12Q141.80-7.80 142.36-10.56ZM138.80-3.88L138.80-3.88Q138.32-4.48 136.92-5.40L136.92-5.40Q135.48-5.84 134.88-5.84L134.88-5.84Q134.60-5.84 134.28-5.74Q133.96-5.64 133.68-5.36Q133.40-5.08 133.22-4.64Q133.04-4.20 133.04-3.48L133.04-3.48Q133.04-2.84 133.74-2.64Q134.44-2.44 135.16-2.44L135.16-2.44Q135.96-2.44 136.84-2.66Q137.72-2.88 138.80-3.88Z M167.16-13.32L167.16-13.32Q167-11.08 166.80-9.42Q166.60-7.76 166.22-6.48Q165.84-5.20 165.22-4.22Q164.60-3.24 163.64-2.36L163.64-2.36Q162.92-1.72 162.30-1.36Q161.68-1 161.10-0.84Q160.52-0.68 160-0.66Q159.48-0.64 159-0.64L159-0.64Q157.76-0.64 156.84-0.90Q155.92-1.16 155.16-1.80Q154.40-2.44 153.76-3.48Q153.12-4.52 152.44-6.08L152.44-6.08Q152.04-7.60 151.82-8.86Q151.60-10.12 151.48-11.24Q151.36-12.36 151.34-13.38Q151.32-14.40 151.32-15.44L151.32-15.44Q151.32-16.04 151.28-16.86Q151.24-17.68 151.34-18.46Q151.44-19.24 151.78-19.78Q152.12-20.32 152.88-20.32L152.88-20.32Q154.04-20.32 154.40-19.08L154.40-19.08Q154.32-18.56 154.28-17.70Q154.24-16.84 154.24-15.64L154.24-15.64Q154.24-13.72 154.30-12.34Q154.36-10.96 154.40-10.76L154.40-10.76Q154.44-10.12 154.62-9.24Q154.80-8.36 155.06-7.48Q155.32-6.60 155.56-5.92Q155.80-5.24 155.96-5.04L155.96-5.04Q156.72-3.88 159.08-3.36L159.08-3.36Q161.84-4 162.96-5.84Q164.08-7.68 164.08-11.16L164.08-11.16Q164.08-12.28 164.16-13.28Q164.24-14.28 164.32-15.16L164.32-15.16L164.20-17.92L164.20-18.48Q164.20-19.76 164.42-20.38Q164.64-21 165.72-21L165.72-21Q166.28-21 166.60-20.72Q166.92-20.44 167.06-20.02Q167.20-19.60 167.24-19.08Q167.28-18.56 167.28-18.04L167.28-18.04Q167.28-17.80 167.24-17.32Q167.20-16.84 167.18-16.32Q167.16-15.80 167.12-15.30Q167.08-14.80 167.08-14.56L167.08-14.56Q167.08-14.24 167.10-13.92Q167.12-13.60 167.16-13.32Z M187.96-1.80L188.44-1.80Q189.44-1.40 189.44-0.36L189.44-0.36Q189.44 1.12 186.60 1.12L186.60 1.12Q186.20 1.12 185.72 1.10Q185.24 1.08 184.88 1.08L184.88 1.08Q184.36 1.08 183.98 1.08Q183.60 1.08 183.36 1.12L183.36 1.12Q183.28 1.08 182.32 1.02Q181.36 0.96 179.52 0.80L179.52 0.80Q178.56 0.88 178.02 0.92Q177.48 0.96 177.32 0.96L177.32 0.96Q175.84 0.96 175.20 0.48L175.20 0.48Q175-0.92 174.88-2.18Q174.76-3.44 174.76-4.60L174.76-4.60Q174.76-6.64 174.94-8.24Q175.12-9.84 175.12-10.88L175.12-10.88Q175.12-12.24 174.96-12.72L174.96-12.72L175.16-16.92Q175.48-20.08 176.08-21.20L176.08-21.20Q176.24-21.36 177.10-21.56Q177.96-21.76 178.92-21.94Q179.88-22.12 180.60-22.26Q181.32-22.40 181.16-22.40L181.16-22.40Q181.40-22.48 182.20-22.56Q183-22.64 183.88-22.72Q184.76-22.80 185.46-22.84Q186.16-22.88 186.12-22.88L186.12-22.88L186.24-22.88Q186.56-22.88 186.86-22.46Q187.16-22.04 187.16-21.48L187.16-21.48Q187.16-21.12 187.12-20.86Q187.08-20.60 186.84-20.40Q186.60-20.20 186.04-20.10Q185.48-20 184.44-19.96L184.44-19.96Q182.64-19.88 182-19.68L182-19.68L181.76-19.68Q180.52-19.68 178.76-19.12L178.76-19.12Q178.56-18.92 178.40-18.36Q178.24-17.80 178.14-17.12Q178.04-16.44 177.98-15.76Q177.92-15.08 177.92-14.68L177.92-14.68Q177.92-13.64 178-13.08Q178.08-12.52 178.04-12.52L178.04-12.52Q179.32-12.56 180.34-12.76Q181.36-12.96 182.16-12.96L182.16-12.96Q182.52-12.96 183-12.94Q183.48-12.92 184-12.92Q184.52-12.92 184.94-12.90Q185.36-12.88 185.60-12.88L185.60-12.88Q186-12.88 186.18-12.52Q186.36-12.16 186.36-11.64L186.36-11.64Q186.36-10.76 185.72-10.50Q185.08-10.24 183.44-10.24L183.44-10.24Q181.52-10.24 181.04-10.12L181.04-10.12Q180.84-10.12 180.58-10.14Q180.32-10.16 180.04-10.16L180.04-10.16Q179.60-10.16 179.10-10.14Q178.60-10.12 178.04-10.08L178.04-10.08Q177.92-9.92 177.84-9.34Q177.76-8.76 177.72-8.12Q177.68-7.48 177.68-6.98Q177.68-6.48 177.68-6.48L177.68-6.48L177.68-5.64Q177.68-4.24 177.56-2.04L177.56-2.04Q177.84-1.96 178.70-1.88Q179.56-1.80 180.52-1.74Q181.48-1.68 182.34-1.62Q183.20-1.56 183.44-1.52L183.44-1.52Q183.48-1.52 184.04-1.56Q184.60-1.60 185.64-1.68L185.64-1.68Q187.12-1.80 187.96-1.80L187.96-1.80Z M207.92-7.84L207.92-7.84Q207.88-6.64 207.84-5.94Q207.80-5.24 207.74-4.80Q207.68-4.36 207.54-4.02Q207.40-3.68 207.16-3.16L207.16-3.16Q206.32-1.32 204.56-0.32Q202.80 0.68 200.08 0.68L200.08 0.68Q198.32 0.68 197.28 0.34Q196.24 0 195.08-0.48L195.08-0.48L193.40-1.28Q192.48-1.72 191.94-2.22Q191.40-2.72 191.40-3.24L191.40-3.24Q191.40-4.52 192.64-4.68L192.64-4.68Q193.60-4.36 194.24-4.14Q194.88-3.92 195.30-3.70Q195.72-3.48 196.02-3.24Q196.32-3 196.60-2.72L196.60-2.72Q198.48-1.96 200.64-1.96L200.64-1.96Q200.96-1.96 201.46-2.08Q201.96-2.20 202.48-2.38Q203-2.56 203.44-2.82Q203.88-3.08 204.12-3.32L204.12-3.32Q204.40-3.88 204.58-4.80Q204.76-5.72 204.76-6.92L204.76-6.92Q204.76-8 204.12-8.76Q203.48-9.52 202.52-10.04Q201.56-10.56 200.50-10.94Q199.44-11.32 198.60-11.64L198.60-11.64Q197.28-12.16 195.80-13.20L195.80-13.20Q194.12-15.88 194.12-17.16L194.12-17.16Q194.12-20 197.64-22.64L197.64-22.64Q201.16-23.84 202.20-23.84L202.20-23.84Q202.56-23.84 203.22-23.56Q203.88-23.28 204.54-22.86Q205.20-22.44 205.68-21.92Q206.16-21.40 206.16-20.92L206.16-20.92Q206.16-19.80 204.80-19.80L204.80-19.80Q204.72-19.80 204.30-20.06Q203.88-20.32 203.36-20.62Q202.84-20.92 202.30-21.16Q201.76-21.40 201.40-21.40L201.40-21.40Q200.56-21.40 199.78-21Q199-20.60 198.40-20Q197.80-19.40 197.44-18.70Q197.08-18 197.08-17.40L197.08-17.40Q197.08-16.36 197.68-15.48Q198.28-14.60 199.08-14.16L199.08-14.16Q199.24-14.08 199.88-13.86Q200.52-13.64 201.42-13.28Q202.32-12.92 203.34-12.40Q204.36-11.88 205.30-11.22Q206.24-10.56 206.94-9.70Q207.64-8.84 207.92-7.84Z M229.04-17.48L229.04-17.48Q228.72-17.32 228.16-17.32L228.16-17.32Q227.96-17.32 227.42-17.38Q226.88-17.44 226.34-17.52Q225.80-17.60 225.36-17.66Q224.92-17.72 224.88-17.72L224.88-17.72Q223.68-17.72 221.84-17.24L221.84-17.24L222.44-12.72Q222.64-10.84 222.74-9.44Q222.84-8.04 222.84-7.08L222.84-7.08Q222.84-6.76 222.84-6.48Q222.84-6.20 222.80-6L222.80-6Q222.84-5.44 222.84-4.92Q222.84-4.40 222.84-3.96L222.84-3.96Q222.84-2.48 222.72-1.64Q222.60-0.80 222.38-0.38Q222.16 0.04 221.82 0.14Q221.48 0.24 221.04 0.24L221.04 0.24Q220.44 0.24 220.18-0.14Q219.92-0.52 219.84-1.06Q219.76-1.60 219.78-2.16Q219.80-2.72 219.80-3.08L219.80-3.08Q219.80-3.88 219.92-4.52Q220.04-5.16 220.04-5.72L220.04-5.72Q220.04-5.84 219.98-6.44Q219.92-7.04 219.86-8Q219.80-8.96 219.76-10.22Q219.72-11.48 219.72-12.92L219.72-12.92Q219.60-15 218.96-16.84L218.96-16.84Q218.16-16.80 217.36-16.74Q216.56-16.68 215.84-16.60Q215.12-16.52 214.58-16.40Q214.04-16.28 213.76-16.16L213.76-16.16Q212.32-16.16 212.32-17.40L212.32-17.40Q212.32-17.92 212.76-18.56L212.76-18.56L219.32-19.76L221.44-20Q222.40-20.12 223.32-20.12L223.32-20.12Q223.68-20.12 223.66-20.14Q223.64-20.16 223.98-20.14Q224.32-20.12 225.36-20.06Q226.40-20 228.84-19.84L228.84-19.84Q229.40-19.52 229.40-18.68L229.40-18.68Q229.40-18 229.04-17.48Z"/></g>
</svg>
</g><g opacity="1" transform="rotate(0 140.8421 162.0333)">
<svg width="14.6776" height="186" x="140.8421" y="162.0333" version="1.1" preserveAspectRatio="none" viewBox="6.48 -25.44 2.3200000000000003 29.4">
  <g transform="matrix(1 0 0 1 0 0)" class="icon3"><path id="id-lXek8z7fT1" d="M8.68-12.24L8.68-12.24Q8.68-12 8.74-11Q8.80-10 8.80-8.16L8.80-8.16Q8.80-6.80 8.60-6.32L8.60-6.32Q8.68-5.96 8.68-5.58Q8.68-5.20 8.68-4.76L8.68-4.76Q8.68-3.84 8.58-2.86Q8.48-1.88 8.44-0.96L8.44-0.96Q8.48-0.48 8.48-0.02Q8.48 0.44 8.48 0.88L8.48 0.88Q8.48 1.36 8.48 1.90Q8.48 2.44 8.42 2.90Q8.36 3.36 8.18 3.66Q8 3.96 7.64 3.96L7.64 3.96Q7 3.96 6.84 3.72L6.84 3.72Q6.48 2.24 6.48-0.04L6.48-0.04Q6.48-1.40 6.66-3.12Q6.84-4.84 6.84-6.56L6.84-6.56Q6.84-8.08 6.60-9.52L6.60-9.52Q6.60-9.60 6.64-10.30Q6.68-11 6.72-11.88Q6.76-12.76 6.84-13.54Q6.92-14.32 7.04-14.56L7.04-14.56Q6.84-15.36 6.84-17.48L6.84-17.48Q6.84-18.12 6.84-18.82Q6.84-19.52 6.86-20.40Q6.88-21.28 6.98-22.42Q7.08-23.56 7.28-25.16L7.28-25.16Q7.32-25.44 7.84-25.44L7.84-25.44Q8.60-25.44 8.70-25.04Q8.80-24.64 8.80-23.72L8.80-23.72Q8.80-23.12 8.76-22.32Q8.72-21.52 8.64-20.48L8.64-20.48Q8.68-19.20 8.68-17.14Q8.68-15.08 8.68-12.24Z"/></g>
</svg>
</g></svg></svg>